<svg width="785" height="589" viewBox="0 0 785 589" fill="none" xmlns="http://www.w3.org/2000/svg">
<path opacity="0.1" d="M308.326 481.992C298.737 497.625 285.733 510.884 270.29 520.776C254.846 530.667 237.364 536.934 219.153 539.106C200.942 541.279 182.476 539.3 165.139 533.319C147.802 527.338 132.044 517.51 119.046 504.572C150.546 491.682 223.076 482.522 308.326 481.992Z" fill="black"/>
<path d="M207.246 519.963C269.102 519.963 319.246 466.237 319.246 399.963C319.246 333.689 269.102 279.963 207.246 279.963C145.39 279.963 95.2461 333.689 95.2461 399.963C95.2461 466.237 145.39 519.963 207.246 519.963Z" fill="black"/>
<path fill-rule="evenodd" clip-rule="evenodd" d="M342 401.132C342 437.299 326.689 469.77 302.137 492.737C290.522 503.561 276.53 512.272 261.483 518.08C247.755 523.36 232.708 526.264 217.132 526.264C211.588 526.264 206.044 526 200.765 525.208C195.749 524.68 190.997 523.624 186.245 522.304C174.893 519.4 164.334 514.912 154.566 509.369C148.23 505.673 142.422 501.713 136.879 496.961C123.943 486.137 113.119 472.674 105.464 457.626C100.712 448.122 97.0158 437.827 94.6399 427.003C92.792 418.555 92 410.108 92 401.132C92 376.317 99.1278 353.35 111.535 334.078C116.815 325.894 122.887 318.239 130.015 311.375C152.454 289.464 183.341 276 217.132 276C219.772 276 222.676 276 225.316 276.264C239.571 277.32 253.035 280.488 265.442 285.768C267.554 286.56 269.666 287.616 271.778 288.672C280.754 293.159 289.202 298.703 297.121 305.039C299.761 307.151 302.137 309.527 304.513 311.903C305.305 312.695 306.361 313.487 307.153 314.543C328.8 336.982 342 367.605 342 401.132Z" fill="url(#paint0_radial_367_295)"/>
<path opacity="0.5" fill-rule="evenodd" clip-rule="evenodd" d="M93.3198 419.779L97.1536 439.347C97.1536 439.347 118.24 453.098 167.36 448.074C216.481 443.049 227.983 416.606 247.152 401.268C266.321 385.931 303.461 373.767 313.045 361.603C322.63 349.703 314.483 325.639 314.483 325.639L310.649 319.822C310.649 319.822 317.598 340.448 309.212 355.521C301.065 370.594 264.404 377.733 244.516 397.037C224.628 416.341 184.133 431.15 149.389 431.414C115.364 431.678 93.3198 419.779 93.3198 419.779Z" fill="#4E79A6"/>
<path opacity="0.5" fill-rule="evenodd" clip-rule="evenodd" d="M114.439 471.254L122.132 483.712C122.132 483.712 157.471 495.111 210.599 483.712C263.727 472.314 303.874 439.179 322.385 420.358C341.136 401.538 338.732 375.295 338.732 375.295L337.049 367.342C337.049 367.342 333.684 394.646 313.009 420.358C292.335 446.071 257.717 469.398 207.955 478.941C158.433 488.749 114.439 471.254 114.439 471.254Z" fill="#386293"/>
<path opacity="0.5" fill-rule="evenodd" clip-rule="evenodd" d="M101.24 352.674C101.24 352.674 169.035 378.527 221.347 367.036C273.66 355.807 287.735 318.203 288.674 298.878L279.056 290.783C279.056 290.783 279.29 329.432 246.214 352.935C213.137 376.176 128.217 362.336 105.462 342.228L101.24 352.674Z" fill="#2A3D67"/>
<path d="M329.095 214.033V242.164L314.649 258.89C314.649 258.89 308.567 256.609 308.567 241.403L306.286 219.355L329.095 214.033Z" fill="#F9865F"/>
<path d="M314.649 242.164C314.649 242.164 338.218 226.198 338.978 220.876C339.739 215.554 373.191 191.224 367.869 206.43C362.547 221.636 345.821 228.478 345.821 228.478C345.821 228.478 332.896 263.452 321.492 262.691C310.087 261.931 310.087 247.486 314.649 242.164Z" fill="#F9865F"/>
<path d="M300.964 413.229L298.683 426.915L310.848 423.873V413.229H300.964Z" fill="#F9865F"/>
<path d="M303.245 420.832C303.245 420.832 317.304 412.503 317.877 416.287C318.45 420.072 324.533 434.518 327.574 436.038C330.615 437.559 334.416 454.285 327.574 453.525C322.274 452.936 302.836 442.77 294.34 438.215C293.294 437.651 292.504 436.708 292.132 435.579C291.761 434.45 291.837 433.222 292.343 432.148C292.842 431.226 293.185 430.229 293.361 429.195C293.361 427.675 303.245 420.832 303.245 420.832Z" fill="#08080E"/>
<path d="M296.402 266.493C296.402 266.493 351.903 292.343 346.581 312.11C341.259 331.878 321.492 415.509 321.492 415.509C321.492 415.509 299.443 420.831 297.923 415.509C296.402 410.187 312.368 327.316 310.847 324.275C309.327 321.234 281.196 301.466 281.196 301.466L223.414 277.137L247.744 254.328L296.402 266.493Z" fill="#48476A"/>
<path d="M338.218 417.789L345.061 435.276L332.896 440.598L325.293 426.913L338.218 417.789Z" fill="#F9865F"/>
<path d="M297.162 141.806C297.162 141.806 290.32 150.93 295.642 155.492C300.964 160.053 297.162 176.78 297.162 176.78L290.32 195.787L262.949 190.465V159.293L264.47 144.087C264.47 144.087 278.155 131.162 279.676 121.279C281.196 111.395 297.162 141.806 297.162 141.806Z" fill="#F9865F"/>
<path d="M251.545 260.41C251.545 260.41 287.279 299.945 287.279 301.465C287.279 302.986 306.286 334.158 306.286 334.158L343.54 417.029C343.54 417.029 329.094 436.796 323.012 435.276C316.93 433.755 273.593 345.562 273.593 345.562C273.593 345.562 265.99 325.794 245.463 321.233C224.935 316.671 208.969 300.705 216.572 282.458C224.175 264.211 251.545 260.41 251.545 260.41Z" fill="#48476A"/>
<path d="M297.162 147.127C310.599 147.127 321.492 136.235 321.492 122.798C321.492 109.361 310.599 98.4688 297.162 98.4688C283.726 98.4688 272.833 109.361 272.833 122.798C272.833 136.235 283.726 147.127 297.162 147.127Z" fill="#F9865F"/>
<path d="M296.402 162.333C296.402 162.333 293.361 179.82 290.32 181.341C287.279 182.861 284.998 188.183 278.155 180.58C271.312 172.977 265.23 157.771 265.23 157.771L241.661 186.663L239.38 266.493C239.38 266.493 265.99 259.65 274.354 266.493C282.717 273.335 300.964 272.575 300.964 272.575L297.162 257.369L300.203 231.52L299.443 207.951L298.683 191.224L296.402 162.333Z" fill="#839A9B"/>
<path d="M293.724 149.537C293.724 149.537 304.005 154.731 304.765 157.773C305.526 160.814 319.211 166.896 319.211 166.896C319.211 166.896 324.533 172.218 324.533 175.259C324.533 178.3 306.286 213.274 306.286 213.274C306.286 213.274 302.484 236.843 304.005 241.404C305.525 245.966 300.964 263.453 300.964 263.453L310.087 274.097H301.724C301.724 274.097 292.601 269.535 292.601 267.254C292.601 264.973 294.121 249.007 294.881 242.165C295.642 235.322 295.642 210.993 294.121 202.63C292.601 194.266 293.361 172.218 293.361 166.896C293.361 161.574 293.724 149.537 293.724 149.537Z" fill="#471C36"/>
<path d="M270.172 137.992C270.172 137.992 266.751 138.765 256.867 141.806C246.983 144.847 231.778 149.409 226.456 155.491C222.72 159.989 219.411 164.825 216.572 169.937L219.613 224.678C219.613 224.678 213.531 236.082 214.291 242.165C215.051 248.247 221.134 249.007 216.572 261.932C212.01 274.857 202.887 286.261 211.25 287.782C219.613 289.302 241.661 283.98 251.545 287.022C261.429 290.063 272.833 275.617 272.833 275.617C272.833 275.617 257.627 277.138 259.908 271.056C262.189 264.973 287.279 196.547 281.957 181.342C276.635 166.136 270.172 137.992 270.172 137.992Z" fill="#471C36"/>
<path d="M320.731 171.457L324.533 174.498C324.533 174.498 335.177 212.512 332.136 216.314C329.094 220.115 304.765 228.478 303.245 223.156C301.724 217.834 320.731 171.457 320.731 171.457Z" fill="#471C36"/>
<path d="M208.209 198.066C208.209 198.066 196.804 230.758 196.804 239.882C196.804 249.005 198.325 302.225 198.325 302.225C198.325 302.225 199.085 325.034 215.051 315.911C231.017 306.787 215.051 300.705 215.051 300.705C215.051 300.705 215.812 240.642 221.894 232.279C227.976 223.916 230.257 211.751 230.257 211.751L208.209 198.066Z" fill="#F9865F"/>
<path d="M332.896 434.516C332.896 434.516 344.3 428.433 346.581 432.995C348.862 437.557 361.027 462.646 359.506 465.687C357.985 468.729 349.622 480.893 339.739 477.852C329.855 474.811 329.095 458.845 329.095 458.845L328.334 440.598L332.896 434.516Z" fill="#0B0A09"/>
<path d="M301.926 116.922C300.251 117.71 298.262 118.182 297.209 119.706C296.429 120.835 296.351 122.302 295.782 123.551C295.161 124.787 294.091 125.74 292.791 126.216C291.491 126.691 290.059 126.653 288.787 126.109C288.476 124.594 287.595 123.257 286.327 122.373C285.686 121.952 284.927 121.747 284.161 121.789C283.396 121.831 282.664 122.118 282.073 122.607C280.506 124.101 281.061 126.706 280.329 128.744C279.643 130.177 278.699 131.472 277.543 132.564C275.879 134.484 274.554 136.736 272.55 138.298C270.546 139.86 267.507 140.537 265.516 138.958C263.841 137.631 263.494 135.182 263.901 133.085C264.308 130.987 265.316 129.056 265.884 126.996C267.732 120.304 264.786 113.16 265.698 106.278C266.865 97.4598 274.361 90.4941 282.727 87.4712C286.208 86.0535 290.019 85.6497 293.721 86.3064C297.547 87.1607 300.815 89.5965 304.479 90.9895C308.398 92.4793 312.659 92.7394 316.76 93.6103C320.86 94.4812 325.08 96.1651 327.46 99.6165C329.12 102.024 329.69 105.013 331.066 107.593C332.649 110.538 335.214 112.836 338.314 114.088L333.979 113.841C334.706 115.775 335.891 117.505 337.433 118.881C335.401 119.296 333.288 119.017 331.432 118.088C331.466 118.979 331.682 119.854 332.067 120.658C332.451 121.462 332.997 122.179 333.67 122.764C330.334 122.664 326.817 122.51 323.998 120.723C322.617 119.848 321.492 118.629 320.192 117.637C317.423 115.523 313.988 114.519 310.639 113.558C308.88 113.053 306.763 112.351 305.173 113.482C303.848 114.424 303.639 116.115 301.926 116.922Z" fill="black"/>
<path d="M227.976 160.812L216.572 169.936L201.366 204.909C201.366 204.909 222.654 221.636 227.976 219.355C233.298 217.074 242.422 176.779 242.422 176.779L227.976 160.812Z" fill="#471C36"/>
<path d="M399.023 202.543L351.036 228.902C350.758 229.087 350.442 229.208 350.112 229.258C349.782 229.308 349.445 229.285 349.125 229.19C348.804 229.096 348.509 228.932 348.258 228.711C348.008 228.49 347.809 228.217 347.676 227.911L335.92 203.339C335.698 202.638 335.734 201.881 336.022 201.205C336.311 200.529 336.833 199.979 337.493 199.656L377.334 179.12C377.825 178.824 378.407 178.721 378.97 178.828C379.532 178.936 380.035 179.247 380.382 179.702L400.284 198.451C400.479 198.8 400.602 199.186 400.645 199.584C400.687 199.982 400.648 200.385 400.53 200.767C400.413 201.15 400.218 201.505 399.959 201.81C399.7 202.115 399.381 202.365 399.023 202.543Z" fill="#2F2E41"/>
<path d="M395.821 198.914L350.834 224.627L338.862 203.051L377.455 182.064L395.821 198.914Z" fill="#6C63FF"/>
<path d="M358.076 191.482C358.31 191.201 358.306 190.811 358.066 190.612C357.827 190.412 357.443 190.478 357.208 190.758C356.974 191.039 356.978 191.429 357.218 191.629C357.457 191.828 357.841 191.763 358.076 191.482Z" fill="#F2F2F2"/>
<path d="M374.634 213.436C374.79 213.249 374.788 212.989 374.628 212.856C374.468 212.723 374.212 212.766 374.056 212.954C373.9 213.141 373.903 213.401 374.062 213.534C374.222 213.667 374.478 213.623 374.634 213.436Z" fill="#F2F2F2"/>
<path d="M535.917 46H377.163C372.102 46 368 50.109 368 55.177V76.697C368 81.765 372.102 85.874 377.163 85.874H535.917C540.977 85.874 545.08 81.765 545.08 76.697V55.177C545.08 50.109 540.977 46 535.917 46Z" fill="#7595EC"/>
<path d="M476.428 57.7402H389.886C388.215 57.7402 386.86 59.0972 386.86 60.7712C386.86 62.4462 388.215 63.8032 389.886 63.8032H476.428C478.099 63.8032 479.454 62.4462 479.454 60.7712C479.454 59.0972 478.099 57.7402 476.428 57.7402Z" fill="white"/>
<path d="M387.729 71.6719H534.847" stroke="white" stroke-linecap="round" stroke-linejoin="round"/>
<path d="M469.818 250L451.338 287.097C451.338 287.097 463.874 291.719 454.075 306.121C454.075 306.121 477.248 315.745 492.409 290.757C507.571 265.768 469.818 250 469.818 250Z" fill="url(#paint1_linear_367_295)"/>
<path d="M427.518 363.381C418.166 363.381 408.301 359.554 398.167 352.001L432.736 294.615L453.305 307.585L453.438 307.641C457.033 308.963 460.838 309.622 464.667 309.588C471.163 309.628 477.507 307.62 482.8 303.847L457.528 347.211C457.472 347.29 446.59 363.415 427.518 363.415V363.381Z" fill="white"/>
<path d="M433.295 296.968L452.288 308.953L452.534 309.11L452.791 309.211C456.591 310.618 460.615 311.323 464.667 311.292C469.323 311.309 473.93 310.341 478.186 308.449L456.131 346.24C455.416 347.292 445.182 361.706 427.529 361.706C418.915 361.706 409.798 358.293 400.391 351.556L433.295 296.968ZM492.409 290.746C483.839 304.868 472.723 307.935 464.667 307.935C461.056 307.965 457.469 307.347 454.075 306.111L432.188 292.312L396 352.429C408.089 361.761 418.669 365.119 427.529 365.119C447.763 365.119 458.98 348.087 458.98 348.087L492.409 290.802V290.746Z" fill="url(#paint2_linear_367_295)"/>
<path d="M451.338 287.096C451.338 287.096 465.125 291.975 454.075 306.12" stroke="white" stroke-linecap="round" stroke-linejoin="round"/>
<path d="M431.753 291.012C431.753 291.012 450.534 308.245 460.925 308.122C471.315 307.999 483.516 305.537 490.7 293.115" stroke="white" stroke-linecap="round" stroke-linejoin="round"/>
<path d="M434.065 313.307C434.065 313.307 446.948 324.765 461.361 321.084" stroke="white" stroke-linecap="round" stroke-linejoin="round"/>
<path d="M447.596 330.426C447.596 330.426 454.355 335.495 463.807 330.694" stroke="white" stroke-linecap="round" stroke-linejoin="round"/>
<path d="M416.491 337.5C416.491 337.5 432.133 353.044 456.657 342.793" stroke="white" stroke-linecap="round" stroke-linejoin="round"/>
<path d="M424.982 322.338C424.982 322.338 431.35 326.903 435.339 328.359" stroke="white" stroke-linecap="round" stroke-linejoin="round"/>
<path d="M472.991 260.766C472.991 260.766 487.237 265.433 488.946 284.266" stroke="white" stroke-linecap="round" stroke-linejoin="round"/>
<path d="M480.153 284.029C480.153 284.029 486.711 294.201 475.628 304.362" stroke="white" stroke-linecap="round" stroke-linejoin="round"/>
<path d="M397.273 349.63C397.273 349.63 433.026 394.481 459.002 342.031" stroke="white" stroke-linecap="round" stroke-linejoin="round"/>
<defs>
<radialGradient id="paint0_radial_367_295" cx="0" cy="0" r="1" gradientUnits="userSpaceOnUse" gradientTransform="translate(181.567 365.689) scale(183.456 183.456)">
<stop offset="0.00558659" stop-color="#48719F"/>
<stop offset="0.348958" stop-color="#386294"/>
<stop offset="0.692708" stop-color="#264063"/>
<stop offset="1" stop-color="#19344F"/>
</radialGradient>
<linearGradient id="paint1_linear_367_295" x1="448.616" y1="275.909" x2="501.282" y2="276.058" gradientUnits="userSpaceOnUse">
<stop stop-color="#AA367C"/>
<stop offset="1" stop-color="#4A2FBD"/>
</linearGradient>
<linearGradient id="paint2_linear_367_295" x1="390.124" y1="324" x2="503.809" y2="324.542" gradientUnits="userSpaceOnUse">
<stop stop-color="#AA367C"/>
<stop offset="1" stop-color="#4A2FBD"/>
</linearGradient>
</defs>
</svg>
