<svg width="204" height="204" viewBox="0 0 204 204" fill="none" xmlns="http://www.w3.org/2000/svg">
<rect width="204" height="204" rx="15" fill="#19191A"/>
<rect x="65" y="28" width="85" height="90" fill="#D9D9D9"/>
<rect x="50" y="164" width="5" height="18" rx="2.5" fill="#C3C322"/>
<rect x="61" y="164" width="5" height="18" rx="2.5" fill="#C3C322"/>
<rect x="72" y="164" width="5" height="18" rx="2.5" fill="#C3C322"/>
<rect x="83" y="164" width="5" height="18" rx="2.5" fill="#C3C322"/>
<rect x="94" y="164" width="5" height="18" rx="2.5" fill="#C3C322"/>
<rect x="105" y="164" width="5" height="18" rx="2.5" fill="#D3D380" fill-opacity="0.33"/>
<rect x="116" y="164" width="5" height="18" rx="2.5" fill="#D3D380" fill-opacity="0.33"/>
<rect x="127" y="164" width="5" height="18" rx="2.5" fill="#D3D380" fill-opacity="0.33"/>
<rect x="138" y="164" width="5" height="18" rx="2.5" fill="#D3D380" fill-opacity="0.33"/>
<rect x="149" y="164" width="5" height="18" rx="2.5" fill="#D3D380" fill-opacity="0.33"/>
<path d="M47 12.8574V122.857H157V12.8574H47ZM106.862 98.6476C106.862 109.353 100.576 114.239 91.4174 114.239C83.1429 114.239 78.3549 109.967 75.8996 104.786L84.3214 99.7034C85.942 102.576 87.4152 105.007 90.9754 105.007C94.3638 105.007 96.5246 103.681 96.5246 98.5003V63.3641H106.862V98.6476V98.6476ZM131.317 114.239C121.717 114.239 115.504 109.672 112.484 103.681L120.906 98.8195C123.116 102.429 126.013 105.105 131.096 105.105C135.368 105.105 138.118 102.969 138.118 99.998C138.118 96.4623 135.319 95.2101 130.58 93.123L128.002 92.0181C120.538 88.8507 115.603 84.8485 115.603 76.4266C115.603 68.6677 121.52 62.7748 130.728 62.7748C137.308 62.7748 142.022 65.0583 145.411 71.0494L137.357 76.2056C135.589 73.0382 133.674 71.786 130.703 71.786C127.683 71.786 125.768 73.7012 125.768 76.2056C125.768 79.2994 127.683 80.5516 132.127 82.4914L134.705 83.5963C143.496 87.353 148.431 91.2079 148.431 99.8507C148.431 109.132 141.114 114.239 131.317 114.239V114.239Z" fill="#C4C422"/>
</svg>
