<svg width="15" height="16" viewBox="0 0 15 16" fill="none" xmlns="http://www.w3.org/2000/svg">
<g clip-path="url(#clip0_316_5)">
<path d="M5.81563 10.2719C5.81563 10.925 5.475 11.9937 4.66875 11.9937C3.8625 11.9937 3.52188 10.925 3.52188 10.2719C3.52188 9.61875 3.8625 8.55 4.66875 8.55C5.475 8.55 5.81563 9.61875 5.81563 10.2719V10.2719ZM15 8.69375C15 9.69062 14.9 10.7469 14.4531 11.6625C13.2688 14.0562 10.0125 14 7.68125 14C5.3125 14 1.8625 14.0844 0.63125 11.6625C0.175 10.7562 0 9.69062 0 8.69375C0 7.38438 0.434375 6.14687 1.29688 5.14375C1.13438 4.65 1.05625 4.13125 1.05625 3.61875C1.05625 2.94688 1.20938 2.60937 1.5125 2C2.92813 2 3.83438 2.28125 4.9125 3.125C5.81875 2.90937 6.75 2.8125 7.68438 2.8125C8.52813 2.8125 9.37813 2.90312 10.1969 3.1C11.2594 2.26562 12.1656 2 13.5656 2C13.8719 2.60937 14.0219 2.94688 14.0219 3.61875C14.0219 4.13125 13.9406 4.64062 13.7813 5.125C14.6406 6.1375 15 7.38438 15 8.69375V8.69375ZM12.9906 10.2719C12.9906 8.9 12.1563 7.69062 10.6938 7.69062C10.1031 7.69062 9.5375 7.79687 8.94375 7.87812C8.47813 7.95 8.0125 7.97812 7.53438 7.97812C7.05938 7.97812 6.59375 7.95 6.125 7.87812C5.54063 7.79687 4.96875 7.69062 4.375 7.69062C2.9125 7.69062 2.07813 8.9 2.07813 10.2719C2.07813 13.0156 4.59063 13.4375 6.77813 13.4375H8.28438C10.4813 13.4375 12.9906 13.0187 12.9906 10.2719V10.2719ZM10.4094 8.55C9.60313 8.55 9.2625 9.61875 9.2625 10.2719C9.2625 10.925 9.60313 11.9937 10.4094 11.9937C11.2156 11.9937 11.5563 10.925 11.5563 10.2719C11.5563 9.61875 11.2156 8.55 10.4094 8.55Z" fill="white"/>
</g>
<defs>
<clipPath id="clip0_316_5">
<rect width="15" height="16" fill="white"/>
</clipPath>
</defs>
</svg>
