<svg width="204" height="204" viewBox="0 0 204 204" fill="none" xmlns="http://www.w3.org/2000/svg">
<rect width="204" height="204" rx="15" fill="#19191A"/>
<rect x="50" y="164" width="5" height="18" rx="2.5" fill="#43991F"/>
<rect x="61" y="164" width="5" height="18" rx="2.5" fill="#43991F"/>
<rect x="72" y="164" width="5" height="18" rx="2.5" fill="#43991F"/>
<rect x="83" y="164" width="5" height="18" rx="2.5" fill="#43991F"/>
<rect x="94" y="164" width="5" height="18" rx="2.5" fill="#43991F"/>
<rect x="105" y="164" width="5" height="18" rx="2.5" fill="#78A964" fill-opacity="0.4"/>
<rect x="116" y="164" width="5" height="18" rx="2.5" fill="#78A964" fill-opacity="0.4"/>
<rect x="127" y="164" width="5" height="18" rx="2.5" fill="#78A964" fill-opacity="0.4"/>
<rect x="138" y="164" width="5" height="18" rx="2.5" fill="#78A964" fill-opacity="0.4"/>
<rect x="149" y="164" width="5" height="18" rx="2.5" fill="#78A964" fill-opacity="0.4"/>
<path d="M101.156 123.113C100.677 123.113 100.198 122.976 99.7644 122.748L95.3844 120.147C94.7228 119.782 95.0422 119.646 95.2703 119.577C96.1372 119.281 96.3197 119.212 97.255 118.665C97.3463 118.619 97.4831 118.642 97.5744 118.687L100.951 120.695C101.065 120.763 101.247 120.763 101.361 120.695L114.547 113.076C114.661 113.007 114.752 112.87 114.752 112.711V97.4947C114.752 97.335 114.684 97.1981 114.547 97.1297L101.361 89.5331C101.247 89.4647 101.088 89.4647 100.951 89.5331L87.765 97.1297C87.6281 97.1981 87.5597 97.3578 87.5597 97.4947V112.711C87.5597 112.847 87.6509 112.984 87.765 113.053L91.3694 115.129C93.3313 116.11 94.5403 114.946 94.5403 113.806V98.7722C94.5403 98.5668 94.7 98.3843 94.9281 98.3843H96.5934C96.7987 98.3843 96.9813 98.544 96.9813 98.7722V113.806C96.9813 116.429 95.5669 117.912 93.0803 117.912C92.3275 117.912 91.7116 117.912 90.0463 117.091L86.5788 115.106C85.7347 114.604 85.1872 113.692 85.1872 112.711V97.4947C85.1872 96.5137 85.7119 95.5784 86.5788 95.0994L99.7644 87.48C100.608 87.0009 101.703 87.0009 102.525 87.48L115.71 95.0994C116.554 95.6012 117.102 96.5137 117.102 97.4947V112.711C117.102 113.692 116.577 114.627 115.71 115.106L102.525 122.725C102.137 122.976 101.658 123.113 101.156 123.113V123.113ZM111.809 108.102C111.809 105.251 109.893 104.498 105.832 103.951C101.726 103.403 101.316 103.129 101.316 102.171C101.316 101.373 101.658 100.323 104.692 100.323C107.407 100.323 108.41 100.917 108.821 102.742C108.867 102.924 109.003 103.038 109.186 103.038H110.897C111.011 103.038 111.102 102.992 111.171 102.924C111.239 102.833 111.285 102.742 111.262 102.627C110.988 99.4794 108.912 98.0193 104.692 98.0193C100.928 98.0193 98.6922 99.6162 98.6922 102.262C98.6922 105.16 100.928 105.935 104.532 106.3C108.844 106.734 109.186 107.35 109.186 108.194C109.186 109.677 108 110.292 105.217 110.292C101.726 110.292 100.951 109.426 100.7 107.692C100.677 107.509 100.517 107.372 100.312 107.372H98.6009C98.3956 107.372 98.2131 107.532 98.2131 107.76C98.2131 109.973 99.4222 112.619 105.194 112.619C109.414 112.619 111.809 110.977 111.809 108.102V108.102ZM124.242 96.6734C124.242 98.065 123.102 99.2056 121.71 99.2056C120.318 99.2056 119.178 98.065 119.178 96.6734C119.178 95.2362 120.364 94.1412 121.71 94.1412C123.079 94.1184 124.242 95.2362 124.242 96.6734ZM123.832 96.6734C123.832 95.4872 122.873 94.5518 121.687 94.5518C120.524 94.5518 119.566 95.4872 119.566 96.6734C119.566 97.8597 120.524 98.8178 121.687 98.8178C122.873 98.795 123.832 97.8368 123.832 96.6734ZM122.805 98.0878H122.212C122.189 97.9509 122.098 97.2209 122.098 97.1981C122.052 97.0384 122.007 96.9472 121.801 96.9472H121.299V98.0878H120.752V95.2362H121.733C122.075 95.2362 122.737 95.2362 122.737 95.989C122.737 96.5137 122.394 96.6278 122.189 96.6962C122.577 96.719 122.6 96.97 122.668 97.335C122.691 97.5631 122.737 97.9509 122.805 98.0878V98.0878ZM122.166 96.0803C122.166 95.6925 121.893 95.6925 121.756 95.6925H121.299V96.4909H121.733C122.098 96.4909 122.166 96.24 122.166 96.0803V96.0803ZM60.3216 63.5725C60.3216 62.9565 60.0022 62.409 59.4775 62.1125L45.4934 54.0597C45.2653 53.9228 44.9916 53.8543 44.7178 53.8315H44.5809C44.3072 53.8315 44.0563 53.9228 43.8053 54.0597L29.8441 62.1125C29.3194 62.409 29 62.9793 29 63.5725L29.0228 85.2443C29.0228 85.5409 29.1825 85.8147 29.4334 85.9743C29.6844 86.134 30.0037 86.134 30.2775 85.9743L38.5813 81.2065C39.1059 80.8872 39.4253 80.3397 39.4253 79.7465V69.6178C39.4253 69.0247 39.7447 68.4543 40.2694 68.1578L43.8053 66.1275C44.0791 65.9678 44.3528 65.8993 44.6494 65.8993C44.9459 65.8993 45.2425 65.9678 45.4934 66.1275L49.0294 68.1578C49.5541 68.4543 49.8734 69.0247 49.8734 69.6178V79.7465C49.8734 80.3397 50.1928 80.91 50.7175 81.2065L59.0213 85.9743C59.2722 86.134 59.6144 86.134 59.8653 85.9743C60.1163 85.8375 60.2759 85.5409 60.2759 85.2443L60.3216 63.5725ZM136.789 39.9159V80.1572C136.789 80.7503 136.47 81.3206 135.945 81.6172L121.961 89.6928C121.436 89.9893 120.798 89.9893 120.273 89.6928L106.289 81.6172C105.764 81.3206 105.445 80.7503 105.445 80.1572V64.0059C105.445 63.4128 105.764 62.8425 106.289 62.5459L120.273 54.4703C120.798 54.1737 121.436 54.1737 121.961 54.4703L125.451 56.4778C125.839 56.7059 126.341 56.4093 126.341 55.9759V34.5322C126.341 33.8934 127.025 33.4828 127.596 33.8022L135.922 38.4559C136.447 38.7297 136.789 39.3 136.789 39.9159V39.9159ZM126.295 69.3212C126.295 69.1615 126.204 69.0247 126.09 68.9562L121.299 66.1731C121.163 66.1047 121.003 66.1047 120.866 66.1731L116.075 68.9562C115.938 69.0247 115.87 69.1615 115.87 69.3212V74.8647C115.87 75.0243 115.961 75.1612 116.075 75.2297L120.866 77.99C121.003 78.0584 121.163 78.0584 121.277 77.99L126.067 75.2297C126.204 75.1612 126.273 75.0243 126.273 74.8647V69.3212H126.295ZM174.156 69.1615C174.681 68.865 175 68.2947 175 67.7015V63.8006C175 63.2075 174.681 62.6372 174.156 62.3406L160.263 54.265C159.738 53.9684 159.1 53.9684 158.575 54.265L144.591 62.3406C144.066 62.6372 143.747 63.2075 143.747 63.8006V79.9518C143.747 80.5678 144.066 81.1153 144.591 81.4118L158.484 89.3278C158.986 89.6243 159.624 89.6243 160.149 89.3278L168.544 84.6512C169.114 84.3318 169.114 83.5106 168.544 83.1912L154.469 75.1156C154.195 74.9559 154.035 74.6822 154.035 74.3856V69.3212C154.035 69.0247 154.195 68.7509 154.469 68.5912L158.849 66.059C159.1 65.8993 159.442 65.8993 159.693 66.059L164.073 68.5912C164.324 68.7509 164.506 69.0247 164.506 69.3212V73.2906C164.506 73.9293 165.213 74.34 165.784 74.0206L174.156 69.1615V69.1615ZM156.522 69.96C156.431 70.0284 156.362 70.1197 156.362 70.2337V73.3362C156.362 73.4503 156.431 73.5643 156.522 73.61L159.214 75.1612C159.305 75.2297 159.442 75.2297 159.533 75.1612L162.225 73.61C162.316 73.5415 162.385 73.4503 162.385 73.3362V70.2337C162.385 70.1197 162.316 70.0056 162.225 69.96L159.533 68.4087C159.442 68.3403 159.305 68.3403 159.214 68.4087L156.522 69.96ZM98.5325 79.8834V63.8234C98.5325 63.2303 98.1675 62.66 97.6428 62.3634L83.7044 54.3334C83.2253 54.0597 82.5638 54.014 82.0162 54.3334L68.0778 62.3634C67.5531 62.66 67.1881 63.2075 67.1881 63.8234V79.8834C67.1881 80.5222 67.6216 81.0697 68.1006 81.3434L82.0619 89.3734C82.6094 89.6928 83.2481 89.67 83.75 89.3734L97.6656 81.3434C98.0763 81.1153 98.3728 80.7275 98.4869 80.2712C98.5097 80.1572 98.5325 80.0203 98.5325 79.8834ZM81.5828 51.3906L81.4003 51.5047H81.6513L81.5828 51.3906V51.3906ZM98.9659 81.0925L98.8747 80.9328V81.1381L98.9659 81.0925Z" fill="#43991F"/>
</svg>
