<svg width="204" height="204" viewBox="0 0 204 204" fill="none" xmlns="http://www.w3.org/2000/svg">
<rect width="204" height="204" rx="15" fill="#19191A"/>
<rect x="50" y="164" width="5" height="18" rx="2.5" fill="#008BC4"/>
<rect x="61" y="164" width="5" height="18" rx="2.5" fill="#008BC4"/>
<rect x="72" y="164" width="5" height="18" rx="2.5" fill="#008BC4"/>
<rect x="83" y="164" width="5" height="18" rx="2.5" fill="#008BC4"/>
<rect x="94" y="164" width="5" height="18" rx="2.5" fill="#008BC4"/>
<rect x="105" y="164" width="5" height="18" rx="2.5" fill="#66AFCD" fill-opacity="0.39"/>
<rect x="116" y="164" width="5" height="18" rx="2.5" fill="#66AFCD" fill-opacity="0.39"/>
<rect x="127" y="164" width="5" height="18" rx="2.5" fill="#66AFCD" fill-opacity="0.39"/>
<rect x="138" y="164" width="5" height="18" rx="2.5" fill="#66AFCD" fill-opacity="0.39"/>
<rect x="149" y="164" width="5" height="18" rx="2.5" fill="#66AFCD" fill-opacity="0.39"/>
<path d="M148.252 55.53C146.713 55.0167 145.173 54.532 143.633 54.0757C143.889 53.0207 144.118 51.9656 144.346 50.9105C147.853 33.9152 145.543 20.2562 137.759 15.7507C130.259 11.4449 118.026 15.9218 105.65 26.7007C104.424 27.7558 103.226 28.8679 102.086 29.98C101.316 29.2386 100.517 28.4972 99.7188 27.7843C86.7441 16.264 73.741 11.4164 65.9563 15.9503C58.4852 20.2847 56.2609 33.1453 59.3977 49.2281C59.7113 50.825 60.0535 52.3933 60.4527 53.9902C58.6277 54.5035 56.8312 55.0738 55.1488 55.6726C39.9215 60.948 29 69.2746 29 77.8863C29 86.7832 40.6344 95.7085 56.4605 101.127C57.7438 101.554 59.027 101.982 60.3387 102.353C59.9109 104.064 59.5402 105.746 59.198 107.485C56.2039 123.312 58.5422 135.859 66.0133 140.164C73.7125 144.613 86.6586 140.05 99.2625 129.015C100.261 128.131 101.259 127.218 102.257 126.249C103.511 127.475 104.823 128.644 106.135 129.785C118.339 140.278 130.402 144.527 137.844 140.221C145.543 135.773 148.053 122.285 144.802 105.86C144.545 104.605 144.26 103.322 143.946 102.01C144.859 101.754 145.743 101.469 146.627 101.184C163.08 95.7371 175 86.9257 175 77.8863C175 69.246 163.765 60.8624 148.252 55.53V55.53ZM109.671 31.3203C120.279 22.0812 130.173 18.4597 134.679 21.0546C139.498 23.8207 141.352 34.9988 138.329 49.6843C138.129 50.6539 137.93 51.5949 137.673 52.5359C131.343 51.1101 124.927 50.0835 118.482 49.5132C114.775 44.2093 110.726 39.1335 106.334 34.3714C107.446 33.3164 108.53 32.3183 109.671 31.3203V31.3203ZM76.6781 92.6859C78.1324 95.1667 79.6152 97.6476 81.1836 100.071C76.7352 99.5867 72.3152 98.8738 67.9523 97.9328C69.207 93.8265 70.7754 89.5777 72.6004 85.2433C73.9121 87.7527 75.2523 90.2335 76.6781 92.6859V92.6859ZM68.0379 58.3816C72.1441 57.4691 76.507 56.7277 81.041 56.1574C79.5297 58.5242 78.0469 60.948 76.6496 63.4003C75.2523 65.8242 73.8836 68.305 72.6004 70.8144C70.8039 66.5656 69.2926 62.4023 68.0379 58.3816ZM75.8512 78.0289C77.7332 74.0937 79.7863 70.2441 81.9535 66.4515C84.1207 62.6589 86.459 58.9804 88.9113 55.3589C93.1887 55.0453 97.5516 54.8742 102 54.8742C106.448 54.8742 110.84 55.0453 115.089 55.3589C117.512 58.9519 119.822 62.6304 122.018 66.3945C124.214 70.1585 126.267 74.0082 128.206 77.9148C126.295 81.8499 124.242 85.7281 122.046 89.5492C119.879 93.3417 117.57 97.0203 115.146 100.67C110.897 100.984 106.477 101.127 102 101.127C97.523 101.127 93.1887 100.984 88.9969 100.727C86.516 97.1058 84.1777 93.3988 81.982 89.6062C79.7863 85.8136 77.7617 81.964 75.8512 78.0289ZM127.35 92.6289C128.805 90.1195 130.173 87.5816 131.514 85.0152C133.339 89.1499 134.936 93.3417 136.333 97.6476C131.913 98.6456 127.436 99.4156 122.93 99.9289C124.47 97.5335 125.925 95.0812 127.35 92.6289ZM131.457 70.8144C130.116 68.305 128.748 65.7957 127.322 63.3433C125.925 60.9195 124.47 58.5242 122.959 56.1574C127.55 56.7277 131.941 57.4976 136.048 58.4386C134.736 62.6589 133.196 66.7652 131.457 70.8144V70.8144ZM102.057 38.7343C105.051 41.9851 107.874 45.407 110.498 48.9429C104.852 48.6863 99.177 48.6863 93.5309 48.9429C96.3254 45.2644 99.2055 41.8425 102.057 38.7343ZM68.9789 21.2542C73.7695 18.4597 84.4059 22.4519 95.6125 32.3753C96.3254 33.0027 97.0383 33.6871 97.7797 34.3714C93.3598 39.1335 89.282 44.2093 85.5465 49.5132C79.102 50.0835 72.7145 51.0816 66.384 52.4789C66.0133 51.0246 65.6996 49.5417 65.3859 48.0589C62.7055 34.2574 64.4734 23.8492 68.9789 21.2542V21.2542ZM61.9926 96.4214C60.7949 96.0792 59.6258 95.7085 58.4566 95.3093C52.3828 93.3988 45.482 90.3761 40.4918 86.4124C37.6117 84.4164 35.6727 81.3367 35.1309 77.8863C35.1309 72.6679 44.1418 65.9953 57.1449 61.4613C58.7703 60.891 60.4242 60.3777 62.0781 59.8929C64.0172 66.0808 66.3555 72.1546 69.0645 78.0289C66.327 83.9886 63.9602 90.148 61.9926 96.4214V96.4214ZM95.2418 124.367C90.5367 128.673 85.0902 132.094 79.159 134.433C75.9937 135.944 72.3438 136.087 69.093 134.803C64.559 132.18 62.677 122.114 65.2434 108.569C65.557 106.972 65.8992 105.375 66.2984 103.807C72.6859 105.176 79.1305 106.117 85.6605 106.602C89.4246 111.934 93.5594 117.038 97.9793 121.829C97.0668 122.713 96.1543 123.568 95.2418 124.367ZM102.228 117.437C99.3195 114.301 96.4109 110.822 93.5879 107.086C96.3254 107.2 99.1484 107.257 102 107.257C104.937 107.257 107.817 107.2 110.669 107.058C108.045 110.679 105.222 114.13 102.228 117.437V117.437ZM139.498 125.992C139.241 129.471 137.53 132.722 134.793 134.918C130.259 137.541 120.592 134.119 110.155 125.165C108.958 124.139 107.76 123.027 106.534 121.886C110.897 117.067 114.918 111.962 118.568 106.602C125.098 106.06 131.599 105.062 138.015 103.607C138.3 104.777 138.557 105.946 138.785 107.086C140.182 113.246 140.411 119.662 139.498 125.992V125.992ZM144.688 95.3378C143.889 95.5945 143.091 95.8511 142.264 96.0792C140.268 89.8628 137.816 83.789 134.993 77.8863C137.73 72.0691 140.04 66.0808 141.979 59.9499C143.462 60.3777 144.888 60.8339 146.256 61.2902C159.545 65.8527 168.869 72.6394 168.869 77.8292C168.869 83.4183 158.917 90.6328 144.688 95.3378ZM102 91.0605C109.214 91.0605 115.06 85.2148 115.06 78.0003C115.06 70.7859 109.214 64.9402 102 64.9402C94.7855 64.9402 88.9398 70.7859 88.9398 78.0003C88.9398 85.2148 94.7855 91.0605 102 91.0605Z" fill="#008BC4"/>
</svg>
