<svg width="682" height="614" viewBox="0 0 682 614" fill="none" xmlns="http://www.w3.org/2000/svg">
<path style="mix-blend-mode:screen" d="M483.449 478.859C542.266 441.205 575.198 387.648 557.005 359.236C538.811 330.824 476.382 338.316 417.564 375.97C358.747 413.624 325.815 467.181 344.008 495.593C362.202 524.005 424.631 516.513 483.449 478.859Z" fill="url(#paint0_radial_321_1362)"/>
<path style="mix-blend-mode:screen" fill-rule="evenodd" clip-rule="evenodd" d="M594 277.463C594 414.136 483.161 524.927 346.471 524.927C310.103 524.976 274.176 516.971 241.269 501.49C234.97 498.535 228.811 495.297 222.807 491.834C198.836 477.987 177.36 460.218 159.272 439.263C152.679 431.674 146.56 423.685 140.951 415.343C133.279 403.949 126.581 391.93 120.927 379.413C106.427 347.384 98.9507 312.622 99.0002 277.463C98.9546 242.241 106.455 207.417 120.998 175.337C125.494 165.387 130.663 155.756 136.471 146.511C148.928 126.538 164.181 108.453 181.766 92.8057C227.041 52.2757 285.701 29.9076 346.471 30.0003C366.255 29.9876 385.971 32.3445 405.194 37.0207C431.018 43.3051 455.652 53.7347 478.137 67.9033C482.463 70.6335 486.695 73.47 490.809 76.4602C494.261 78.9303 497.653 81.5187 500.962 84.1779C517.211 97.1157 531.759 112.055 544.261 128.64C570.988 164.014 587.644 205.961 592.464 250.032C593.498 259.139 594.011 268.298 594 277.463Z" fill="url(#paint1_radial_321_1362)"/>
<g clip-path="url(#clip0_321_1362)">
<path fill-rule="evenodd" clip-rule="evenodd" d="M564 277.27C564 298.4 561.244 318.612 555.731 337.445C544.708 376.03 523.119 410.021 494.639 436.662C474.427 455.495 450.082 470.655 423.9 480.76C400.014 489.947 373.831 495 346.731 495C343.055 495 338.921 495 335.246 494.541C329.734 494.08 323.763 493.621 318.25 493.162C275.991 487.651 237.865 470.194 207.089 444.011C195.605 434.365 185.04 423.342 175.394 411.4C168.504 402.671 162.073 393.025 156.102 382.92C154.724 380.623 153.346 378.326 152.427 375.571C152.427 375.571 152.427 375.571 152.427 375.11C151.049 372.354 149.671 370.057 148.752 367.301C145.077 359.034 141.862 350.306 139.106 341.578C137.269 335.148 135.431 328.717 134.053 322.285C133.134 317.692 132.216 313.098 131.756 308.046C130.378 297.941 129.46 287.836 129.46 277.27C129.46 271.299 129.919 265.327 130.378 259.356C130.838 255.681 131.297 252.006 131.756 248.331C134.513 226.742 140.484 206.531 149.211 187.698C153.346 178.511 158.398 169.324 163.91 160.597C173.097 146.357 183.662 133.036 196.065 121.552C235.109 83.4265 288.852 60 347.648 60C349.945 60 352.242 60 354.539 60C356.836 60 359.591 60 361.888 60.4594C374.29 61.3781 386.692 63.2154 398.176 65.9715C405.066 67.8089 411.957 69.6463 418.388 71.943C422.982 73.321 427.114 75.1584 431.708 76.9958C434.925 78.3738 438.139 79.7518 441.354 81.1299C441.815 81.5892 442.274 81.5892 443.192 82.0486C464.322 92.1541 483.614 105.934 500.151 122.471C502.447 124.768 504.744 127.064 507.041 129.361C508.42 131.198 510.256 132.576 511.635 134.414C514.39 137.17 516.687 140.385 518.984 143.141C527.712 154.166 535.062 166.109 541.491 178.511C548.842 193.21 554.813 208.828 558.947 224.905C561.703 241.441 564 258.896 564 277.27Z" fill="url(#paint2_radial_321_1362)"/>
<path d="M402.311 220.771C402.311 218.934 408.435 220.006 411.498 220.771H425.279C430.79 220.771 422.982 225.364 418.388 227.661C416.091 228.427 410.578 229.958 406.904 229.958C402.311 229.958 402.311 223.068 402.311 220.771Z" fill="url(#paint3_linear_321_1362)"/>
<path fill-rule="evenodd" clip-rule="evenodd" d="M441.813 81.5888C440.895 81.5888 440.436 81.5888 439.518 82.0482C437.221 82.5074 434.925 82.048 432.628 81.5888C430.79 81.1294 429.87 80.2107 427.573 80.2107C424.817 79.7514 422.521 78.8327 419.765 78.3733C417.009 77.914 414.712 76.9953 411.957 76.0766C409.66 75.1579 408.742 75.6173 406.904 76.0766C405.066 76.536 403.687 75.6173 401.852 75.158C400.014 74.2393 397.717 74.2393 395.879 73.7799C390.368 72.8612 384.856 71.0239 379.342 69.6458C376.128 68.7271 372.913 68.7271 369.237 68.7271C366.482 68.7271 364.185 69.6458 361.429 69.6458C359.591 69.6458 358.212 69.1864 356.377 69.1864C354.539 68.7271 352.701 69.1864 350.863 69.1864C348.107 68.7271 346.731 68.2678 343.973 69.1864C341.677 69.6458 340.299 69.6458 338.002 70.1051C335.705 70.1051 332.949 71.0238 330.652 71.4832C326.518 72.4019 321.925 73.3205 317.791 73.3205C315.035 73.3205 311.36 72.4018 309.063 73.3205C307.685 73.7799 306.766 75.6173 305.388 76.536C303.092 78.8327 300.795 80.6701 298.958 82.9667C297.12 85.2635 295.283 88.0195 295.283 91.235C295.283 93.9909 296.661 97.2064 298.039 99.5032C299.417 102.259 299.876 104.556 297.12 106.393C293.905 108.69 289.771 110.527 286.096 111.906C283.34 112.824 281.043 113.284 279.206 111.446C278.287 110.987 277.828 109.609 276.909 108.69C275.99 108.231 274.612 108.69 273.694 109.15C270.938 110.068 268.182 110.987 265.425 111.446C263.588 111.906 262.21 112.824 260.373 112.824C258.535 113.284 257.157 111.906 254.861 112.365C252.104 112.824 248.889 114.202 246.133 114.202C243.836 114.202 241.08 113.284 239.243 112.365C238.324 111.906 237.865 110.987 236.487 111.446C235.568 111.446 234.19 112.824 233.731 113.743C232.812 114.662 232.812 116.04 231.893 116.958C230.974 118.336 230.515 119.255 229.597 120.633C228.218 122.93 226.84 125.227 225.462 127.523C224.544 128.901 223.625 131.198 222.247 132.576C221.788 133.495 220.41 133.954 219.491 134.414C217.194 135.792 214.897 137.629 212.601 139.007C208.467 142.222 204.333 145.897 200.198 149.112C196.983 151.409 192.39 152.787 188.715 154.625C186.418 155.543 184.121 156.462 181.825 157.381C180.906 157.84 179.528 157.84 179.068 158.759C178.15 159.677 177.691 160.596 177.231 161.974C175.394 164.271 173.097 167.027 171.719 169.783C170.8 171.62 170.341 172.998 169.422 174.836C168.504 177.132 167.126 179.429 166.666 182.185C164.829 187.238 164.829 192.75 162.532 197.803C161.613 200.559 159.776 203.315 158.398 206.071C156.101 210.665 155.642 216.177 155.183 221.23C154.723 223.986 155.183 227.66 155.642 230.417C156.101 233.632 156.101 236.847 156.101 240.063C156.101 243.278 153.805 246.953 151.967 249.25C150.13 251.546 146.914 252.465 144.618 254.762C142.78 256.599 140.484 258.436 139.565 261.193C139.106 262.111 139.565 263.489 139.565 264.867C139.106 267.623 138.187 269.92 138.187 272.676C137.728 275.892 137.728 279.107 137.728 282.781C137.728 284.619 137.728 285.998 137.728 287.836C137.728 289.671 138.187 291.05 138.646 292.427C138.646 293.347 138.646 294.724 138.646 295.644C138.646 297.021 139.565 298.4 139.565 299.317C140.484 302.534 140.943 305.29 141.402 308.505C141.862 311.26 143.24 314.018 143.699 316.774C145.077 320.448 145.536 324.123 146.455 328.256C146.914 331.014 146.914 334.228 147.374 336.984C147.833 339.281 148.292 341.578 148.292 343.874C148.292 347.55 147.374 350.765 147.374 354.441C147.374 360.411 149.671 366.384 151.049 372.354C151.508 374.192 151.967 375.569 152.427 377.406C137.268 348.009 129 314.477 129 279.107C129 235.929 141.402 195.966 162.992 162.433C172.178 148.194 182.743 134.873 195.146 123.389C234.19 85.2635 287.933 61.8369 346.728 61.8369C351.322 61.8369 356.377 61.8369 360.968 62.2963C389.448 61.8369 417.009 69.1864 441.813 81.5888Z" fill="url(#paint4_linear_321_1362)"/>
<path d="M388.53 241.441C399.555 243.278 414.56 248.331 420.685 250.628H434.464C439.057 250.628 464.322 269.002 468.916 280.486C473.509 291.968 487.29 280.486 498.772 280.486C510.256 280.486 482.696 319.53 473.509 328.717C464.322 337.904 480.4 356.276 482.696 360.87C484.993 365.464 475.806 372.354 473.509 390.728C471.212 409.103 464.322 434.365 459.728 450.443C456.053 463.304 438.292 474.177 429.87 478.005C426.81 479.536 418.847 479.84 411.498 468.817C402.311 455.037 397.717 432.069 395.42 422.881C393.123 413.696 413.794 365.464 372.452 360.87C331.112 356.276 354.08 395.322 301.255 356.276C248.431 317.233 308.145 241.441 312.739 234.551C317.332 227.661 328.816 234.551 349.486 227.661C366.023 222.149 382.407 225.364 388.53 227.661C383.936 231.489 377.507 239.604 388.53 241.441Z" fill="url(#paint5_linear_321_1362)"/>
<path d="M161.371 370.146C162.876 365.694 155.729 350.98 151.967 344.179C155.102 339.853 162.876 332.31 168.894 336.76C176.417 342.326 198.986 329.341 206.509 331.196C214.032 333.052 230.959 334.907 232.839 340.47C234.72 346.034 234.72 359.017 238.482 364.583C241.491 369.033 238.482 381.276 236.601 386.839C235.974 388.695 233.592 392.775 229.078 394.258C223.436 396.114 236.601 396.114 247.885 399.822C259.17 403.532 251.647 422.079 255.408 431.353C259.17 440.627 279.858 457.32 283.619 461.029C287.381 464.739 283.619 470.303 279.858 468.447C276.096 466.594 234.72 433.208 215.913 429.498C200.867 426.531 173.282 397.349 161.371 383.129C160.744 380.656 159.867 374.598 161.371 370.146Z" fill="url(#paint6_linear_321_1362)"/>
<path d="M211.683 188.617V179.43V167.946C211.683 163.353 207.089 163.353 202.496 156.462C197.903 149.572 202.496 151.869 209.386 149.572C216.276 147.276 213.98 154.166 213.98 156.462C213.98 158.759 223.167 163.353 225.463 163.353C227.76 163.353 236.947 163.353 234.65 167.946C232.353 172.54 232.353 174.836 225.463 184.023C219.951 191.373 213.98 190.148 211.683 188.617Z" fill="url(#paint7_linear_321_1362)"/>
<path d="M207.087 172.539C208.925 170.702 200.197 164.118 195.604 161.056C194.838 164.884 192.388 173.458 188.714 177.133C184.12 181.726 195.604 181.726 200.197 184.023C204.791 186.32 204.791 174.836 207.087 172.539Z" fill="url(#paint8_linear_321_1362)"/>
<path d="M498.772 363.167C504.285 363.167 508.724 353.98 510.256 349.386C512.165 344.792 517.146 344.792 519.443 347.089C521.74 349.386 519.443 374.651 512.552 386.135C505.662 397.617 498.772 395.322 494.18 395.322C489.587 395.322 494.178 386.135 498.772 381.541C503.365 376.948 491.881 363.167 498.772 363.167Z" fill="url(#paint9_linear_321_1362)"/>
<path fill-rule="evenodd" clip-rule="evenodd" d="M434.463 229.956C434.463 237.305 429.87 240.674 427.573 241.439L441.354 248.331C440.588 246.034 441.354 241.439 450.541 241.439C456.283 241.439 461.451 250.626 466.619 259.813C471.787 269 476.954 278.187 482.696 278.187C494.178 278.187 521.74 262.112 528.63 255.221C534.142 249.709 526.333 240.675 521.74 236.848C520.209 241.441 513.011 246.494 496.475 229.956C475.806 209.283 482.696 204.692 496.475 213.878C507.5 221.227 514.849 220.003 517.146 218.473C520.209 216.941 529.548 215.716 542.411 223.066C555.272 230.417 555.426 281.252 553.895 305.749C558.486 287.377 565.838 245.116 558.486 223.066C535.521 154.164 507.959 128.901 482.696 105.933C462.484 87.5596 411.498 69.1865 388.53 62.2966C382.405 65.3589 369.237 73.7802 365.562 82.9671C361.246 93.7601 358.956 94.4082 345.35 98.2617C344.479 98.5083 343.562 98.7678 342.595 99.0443C331.497 102.216 331.343 102.103 327.78 99.4614C326.181 98.2767 323.896 96.5832 319.629 94.4498C309.4 89.3346 295.371 95.6117 283.184 101.065C278.955 102.957 274.948 104.75 271.398 105.933C257.618 110.527 246.134 124.307 246.134 128.901C246.134 130.528 244.981 131.867 243.9 133.122C241.93 135.409 240.201 137.418 246.134 140.384C252.169 143.401 257.212 142.455 262.566 141.45C265.363 140.925 268.245 140.384 271.398 140.384C280.586 140.384 275.99 147.274 271.398 151.868C266.805 156.461 257.617 158.758 246.134 161.055C239.996 162.282 239.107 166.135 237.856 171.56C236.766 176.285 235.401 182.201 230.057 188.614C223.452 196.54 221.2 199.401 220.74 200.098C216.902 200.119 210.825 201.058 216.276 204.692L216.288 204.701C223.174 209.292 230.051 213.878 220.869 213.878C216.853 213.878 214.154 216.949 211.621 219.832C208.358 223.545 205.37 226.944 200.198 223.066C193.308 217.899 189.002 224.358 183.405 232.755C181.538 235.554 179.529 238.568 177.232 241.439C171.345 248.799 173.003 253.329 174.954 258.656C176.047 261.641 177.232 264.877 177.232 269.001C177.232 274.945 179.694 274.736 183.343 274.424C186.744 274.134 191.175 273.756 195.606 278.187C204.101 286.683 220.452 275.539 228.314 270.181C228.954 269.745 229.538 269.347 230.057 269.001C236.947 264.407 248.431 229.956 246.134 223.066C244.186 217.225 258.751 208.08 267.427 202.632C268.983 201.655 270.35 200.797 271.398 200.098C276.363 196.787 281.329 200.635 288.874 206.481C291.798 208.747 295.109 211.313 298.959 213.878C307.407 219.51 307.223 219.963 306.345 222.117C305.79 223.476 304.96 225.513 305.849 229.956C306.997 235.697 308.146 233.4 310.155 229.381C312.165 225.362 315.036 219.621 319.629 218.473C328.816 216.176 324.223 206.989 310.442 204.692C296.662 202.396 282.882 188.614 289.772 188.614H319.629C331.113 188.614 338.002 195.506 333.409 200.098C328.815 204.691 351.783 213.878 358.673 213.878C363.704 213.878 360.163 206.531 356.098 198.095C354.595 194.979 353.021 191.713 351.783 188.614C348.579 180.608 356.542 183.766 363.215 186.413C366.112 187.562 368.765 188.614 370.155 188.614C374.749 188.614 377.046 193.208 370.155 200.098C363.265 206.988 388.53 213.878 395.42 213.878H422.979C434.463 213.878 434.463 220.769 434.463 229.956ZM381.639 186.319C386.998 187.084 398.635 188.156 402.31 186.319C405.984 184.481 417.622 190.147 422.979 193.209C426.042 193.975 431.708 194.587 429.87 190.912C427.573 186.319 413.794 170.242 404.607 172.538C395.42 174.835 379.342 184.021 381.639 186.319Z" fill="url(#paint10_linear_321_1362)"/>
</g>
<path style="mix-blend-mode:screen" d="M124.378 565.089L164.141 585.04L171.444 568.09L134.038 547.528C134.038 547.528 126.106 559.856 124.378 565.089Z" fill="url(#paint11_linear_321_1362)"/>
<path fill-rule="evenodd" clip-rule="evenodd" d="M117.714 530.275L120.131 522.829C120.131 522.829 133.184 528.453 142.723 544.105L142.377 544.746L123.984 534.18L123.209 535.512L117.714 530.275Z" fill="url(#paint12_linear_321_1362)"/>
<path fill-rule="evenodd" clip-rule="evenodd" d="M101.072 561.26L96.05 567.541C96.05 567.541 107.933 575.338 126.249 574.688L126.595 574.046L107.656 564.528L108.341 563.147L101.072 561.26Z" fill="url(#paint13_linear_321_1362)"/>
<path fill-rule="evenodd" clip-rule="evenodd" d="M36.9452 506.8C32.2182 515.58 45.7271 540.586 65.7921 549.956C85.8561 559.326 119.307 565.647 119.307 565.647L125.473 554.459L131.418 543.154C131.418 543.154 107.708 518.706 88.8562 507.117C70.0042 495.527 41.6402 498.08 36.9452 506.8Z" fill="url(#paint14_radial_321_1362)"/>
<path fill-rule="evenodd" clip-rule="evenodd" d="M119.311 565.653C119.311 565.653 125.073 552.244 131.422 543.16C131.422 543.16 125.89 556.386 119.311 565.653Z" fill="#C4B0B8"/>
<path fill-rule="evenodd" clip-rule="evenodd" d="M39.4021 523.337C39.4021 523.337 42.2001 508.806 53.4841 499.613C53.4841 499.613 40.4311 500.461 36.9451 506.8C33.8081 512.504 39.4021 523.337 39.4021 523.337Z" fill="url(#paint15_radial_321_1362)"/>
<path d="M53.5951 499.752C42.9931 508.219 39.6181 523.208 39.5771 523.372L39.2301 523.299C39.2601 523.147 42.6701 508.02 53.3771 499.474L53.5951 499.752Z" fill="#53345F"/>
<path fill-rule="evenodd" clip-rule="evenodd" d="M36.0401 510.126L39.9082 503.727C39.9082 503.727 35.7631 505.792 36.0401 510.126Z" fill="#53345F"/>
<path fill-rule="evenodd" clip-rule="evenodd" d="M36.2222 509.043C36.6862 507.715 37.3231 506.454 38.1181 505.292C38.1181 505.292 34.6372 504.351 33.9222 505.421C33.2082 506.491 36.2222 509.043 36.2222 509.043Z" fill="url(#paint16_linear_321_1362)"/>
<path style="mix-blend-mode:multiply" opacity="0.5" fill-rule="evenodd" clip-rule="evenodd" d="M97.6172 560.683C97.6172 560.683 101.682 538.396 113.742 526.354C120.862 532.601 131.42 543.163 131.42 543.163C131.42 543.163 125.597 551.115 119.31 565.655C119.312 565.653 108.047 564.093 97.6172 560.683Z" fill="url(#paint17_radial_321_1362)"/>
<path style="mix-blend-mode:multiply" opacity="0.5" fill-rule="evenodd" clip-rule="evenodd" d="M50.6161 515.108C46.9661 523.349 53.2571 534.026 61.2041 538.771C69.1501 543.516 78.1791 538.667 82.2771 530.514C86.3751 522.362 84.5031 512.759 75.0851 508.891C66.5792 505.383 54.6721 505.949 50.6161 515.108Z" fill="url(#paint18_radial_321_1362)"/>
<path fill-rule="evenodd" clip-rule="evenodd" d="M49.3191 514.41C45.6691 522.651 51.9601 533.328 59.9061 538.072C67.8531 542.817 76.8821 537.969 80.9831 529.817C85.0831 521.666 83.2081 512.062 73.7881 508.193C65.2851 504.686 53.3781 505.252 49.3191 514.41Z" fill="#C4B0B8"/>
<path fill-rule="evenodd" clip-rule="evenodd" d="M48.4152 513.923C44.7652 522.164 51.0562 532.841 59.0022 537.586C66.9482 542.33 75.9782 537.482 80.0782 529.331C84.1792 521.18 82.3042 511.575 72.8842 507.706C64.3802 504.2 52.4742 504.766 48.4152 513.923Z" fill="url(#paint19_radial_321_1362)"/>
<path fill-rule="evenodd" clip-rule="evenodd" d="M51.6031 514.962C48.2101 522.291 53.6261 529.8 59.8391 533.513C66.0521 537.226 73.1091 533.393 76.3311 526.989C79.5531 520.585 78.1052 513.065 70.7572 510.039C64.0932 507.293 55.1341 507.299 51.6031 514.962Z" fill="#A6345F"/>
<path fill-rule="evenodd" clip-rule="evenodd" d="M77.6081 519.107C77.9361 521.799 77.4391 524.527 76.1811 526.93C73.1151 533.024 65.7181 537.006 59.8141 533.478C57.7931 532.273 56.0171 530.699 54.5791 528.836C51.7491 525.162 50.4851 520.396 52.6541 515.487C55.8371 508.22 64.5551 508.194 70.8811 510.798C74.9411 512.491 77.1021 515.612 77.6081 519.107Z" fill="url(#paint20_linear_321_1362)"/>
<path d="M80.9961 529.799L80.9111 529.958L103.523 542.132L103.608 541.974L80.9961 529.799Z" fill="#53345F"/>
<path d="M97.6921 560.694L97.5181 560.658C102.99 535.601 113.564 526.379 113.668 526.289L113.784 526.425C113.688 526.522 103.163 535.712 97.6921 560.694Z" fill="#53345F"/>
<path d="M89.246 558.345L89.069 558.362C89.059 558.273 88.369 549.238 94.144 536.987L94.2991 537.071C88.5341 549.268 89.239 558.257 89.246 558.345Z" fill="#53345F"/>
<path fill-rule="evenodd" clip-rule="evenodd" d="M121.24 548.193L111.312 543.256L112.09 540.194L122.379 546.076L121.24 548.193Z" fill="#C4B0B8"/>
<path fill-rule="evenodd" clip-rule="evenodd" d="M120.51 563.9C120.51 563.9 124.84 553.631 130.837 544.51L134.89 547.454L124.597 565.422L120.51 563.9Z" fill="url(#paint21_radial_321_1362)"/>
<path opacity="0.5" fill-rule="evenodd" clip-rule="evenodd" d="M122.578 564.663C122.719 561.647 123.563 558.705 125.042 556.072C127.494 551.735 133.956 546.766 133.956 546.766L130.837 544.51C130.837 544.51 124.212 554.404 120.51 563.9L122.578 564.663Z" fill="#C4B0B8"/>
<path d="M57.6721 512.591C59.6241 511.992 61.6611 511.717 63.7021 511.777L63.6501 509.781C63.6501 509.781 60.2311 509.449 58.0701 511.107L57.6721 512.591Z" fill="#B695E5"/>
<path d="M62.9861 532.353L65.86 532.275L65.9161 533.931L63.5941 533.851L62.9861 532.353Z" fill="#B695E5"/>
<path style="mix-blend-mode:multiply" opacity="0.5" fill-rule="evenodd" clip-rule="evenodd" d="M41.9841 528.007C41.9841 528.007 42.3341 512.158 57.3781 499.354L53.4841 499.612C53.4841 499.612 44.1141 506.632 39.4021 523.337L41.9841 528.007Z" fill="url(#paint22_radial_321_1362)"/>
<path fill-rule="evenodd" clip-rule="evenodd" d="M95.378 538.392C95.47 538.442 95.551 538.509 95.616 538.591C95.682 538.672 95.731 538.765 95.76 538.865C95.789 538.965 95.799 539.07 95.788 539.174C95.776 539.278 95.745 539.378 95.694 539.47C95.595 539.656 95.427 539.795 95.225 539.856C95.024 539.918 94.807 539.898 94.62 539.799C94.436 539.698 94.299 539.528 94.24 539.326C94.18 539.124 94.2041 538.906 94.3041 538.721C94.3531 538.629 94.419 538.547 94.5 538.481C94.58 538.414 94.673 538.364 94.773 538.334C94.872 538.303 94.977 538.292 95.081 538.302C95.185 538.312 95.286 538.343 95.378 538.392Z" fill="url(#paint23_linear_321_1362)"/>
<path fill-rule="evenodd" clip-rule="evenodd" d="M95.3021 538.533C95.4471 538.617 95.5531 538.753 95.5991 538.914C95.6441 539.074 95.6251 539.246 95.5461 539.393C95.4671 539.54 95.3341 539.651 95.1751 539.701C95.0151 539.752 94.8431 539.738 94.6941 539.663C94.5491 539.58 94.4431 539.443 94.3971 539.283C94.3521 539.122 94.3711 538.95 94.4501 538.803C94.5291 538.656 94.6621 538.546 94.8211 538.495C94.9801 538.445 95.1531 538.458 95.3021 538.533Z" fill="url(#paint24_radial_321_1362)"/>
<path fill-rule="evenodd" clip-rule="evenodd" d="M91.9451 536.543C92.1281 536.646 92.2641 536.817 92.3221 537.019C92.3791 537.22 92.3551 537.437 92.2541 537.621C92.1541 537.807 91.9851 537.945 91.7831 538.007C91.5821 538.068 91.3641 538.047 91.1771 537.949C90.9961 537.846 90.8611 537.676 90.8041 537.475C90.7461 537.275 90.7701 537.059 90.8701 536.876C90.9181 536.783 90.9841 536.701 91.0651 536.634C91.1451 536.567 91.2381 536.516 91.3381 536.485C91.4381 536.455 91.5431 536.444 91.6471 536.454C91.7521 536.464 91.8531 536.494 91.9451 536.543Z" fill="url(#paint25_linear_321_1362)"/>
<path fill-rule="evenodd" clip-rule="evenodd" d="M91.8692 536.684C92.0142 536.768 92.1202 536.904 92.1652 537.065C92.2112 537.226 92.1922 537.398 92.1132 537.545C92.0342 537.692 91.9012 537.802 91.7412 537.853C91.5822 537.903 91.4102 537.889 91.2602 537.815C91.1872 537.775 91.1232 537.721 91.0712 537.656C91.0192 537.591 90.9812 537.516 90.9592 537.436C90.9362 537.356 90.9302 537.272 90.9402 537.19C90.9512 537.107 90.9782 537.028 91.0192 536.956C91.0562 536.882 91.1082 536.815 91.1712 536.761C91.2342 536.707 91.3082 536.666 91.3872 536.641C91.4662 536.616 91.5502 536.606 91.6322 536.614C91.7152 536.621 91.7962 536.645 91.8692 536.684Z" fill="url(#paint26_radial_321_1362)"/>
<path d="M62.6331 536.617C62.8421 536.229 62.7001 535.746 62.3171 535.539C61.9331 535.333 61.4521 535.48 61.2431 535.869C61.0331 536.257 61.1751 536.74 61.5591 536.947C61.9431 537.153 62.4241 537.006 62.6331 536.617Z" fill="#C4B0B8"/>
<path fill-rule="evenodd" clip-rule="evenodd" d="M62.2392 535.676C62.3842 535.76 62.4902 535.896 62.5362 536.057C62.5812 536.217 62.5621 536.389 62.4831 536.536C62.4041 536.683 62.2712 536.794 62.1122 536.844C61.9522 536.895 61.7802 536.881 61.6312 536.806C61.4872 536.722 61.3812 536.586 61.3362 536.426C61.2912 536.265 61.3101 536.094 61.3891 535.948C61.4271 535.873 61.4782 535.807 61.5412 535.753C61.6042 535.699 61.6782 535.658 61.7572 535.633C61.8362 535.607 61.9202 535.598 62.0022 535.606C62.0852 535.613 62.1662 535.637 62.2392 535.676Z" fill="url(#paint27_radial_321_1362)"/>
<path fill-rule="evenodd" clip-rule="evenodd" d="M53.1332 529.002C53.3182 529.104 53.4552 529.274 53.5142 529.476C53.5742 529.678 53.5502 529.895 53.4502 530.08C53.4012 530.173 53.3342 530.254 53.2542 530.321C53.1742 530.388 53.0812 530.438 52.9812 530.469C52.8812 530.5 52.7762 530.511 52.6722 530.501C52.5682 530.491 52.4672 530.461 52.3742 530.412C52.2832 530.362 52.2022 530.294 52.1362 530.213C52.0712 530.131 52.0222 530.038 51.9932 529.937C51.9642 529.837 51.9552 529.732 51.9662 529.628C51.9772 529.524 52.0092 529.423 52.0602 529.332C52.1592 529.146 52.3272 529.007 52.5282 528.945C52.7302 528.883 52.9472 528.904 53.1332 529.002Z" fill="#C4B0B8"/>
<path fill-rule="evenodd" clip-rule="evenodd" d="M53.0531 529.152C53.1971 529.236 53.3042 529.372 53.3492 529.533C53.3952 529.694 53.3762 529.866 53.2972 530.013C53.2182 530.16 53.0842 530.27 52.9252 530.321C52.7662 530.371 52.5931 530.357 52.4441 530.283C52.3001 530.199 52.1932 530.063 52.1482 529.902C52.1022 529.741 52.1212 529.569 52.2002 529.422C52.2792 529.275 52.4132 529.165 52.5722 529.114C52.7312 529.064 52.9031 529.078 53.0531 529.152Z" fill="url(#paint28_radial_321_1362)"/>
<path fill-rule="evenodd" clip-rule="evenodd" d="M73.6371 533.138C73.7291 533.188 73.8091 533.255 73.8751 533.336C73.9411 533.417 73.9891 533.511 74.0191 533.611C74.0481 533.711 74.0581 533.816 74.0461 533.92C74.0351 534.024 74.0031 534.124 73.9531 534.216C73.8541 534.401 73.6851 534.54 73.4841 534.602C73.2831 534.664 73.0651 534.643 72.8791 534.545C72.6951 534.444 72.5581 534.273 72.4981 534.071C72.4391 533.869 72.4621 533.652 72.5631 533.467C72.6121 533.375 72.6781 533.293 72.7581 533.226C72.8391 533.16 72.9321 533.11 73.0311 533.079C73.1311 533.049 73.2361 533.038 73.3401 533.048C73.4441 533.058 73.5451 533.089 73.6371 533.138Z" fill="#C4B0B8"/>
<path fill-rule="evenodd" clip-rule="evenodd" d="M73.5561 533.288C73.7011 533.371 73.8071 533.508 73.8531 533.668C73.8981 533.829 73.8791 534.001 73.8001 534.148C73.7211 534.295 73.5881 534.405 73.4291 534.456C73.2691 534.506 73.0971 534.493 72.9481 534.418C72.8031 534.334 72.6971 534.198 72.6511 534.037C72.6061 533.877 72.6241 533.705 72.7041 533.558C72.7831 533.411 72.9161 533.3 73.0751 533.25C73.2341 533.199 73.4071 533.213 73.5561 533.288Z" fill="url(#paint29_radial_321_1362)"/>
<path fill-rule="evenodd" clip-rule="evenodd" d="M80.3432 522.686C80.4352 522.736 80.5161 522.803 80.5821 522.885C80.6471 522.966 80.6962 523.059 80.7262 523.16C80.7562 523.26 80.7651 523.365 80.7541 523.469C80.7431 523.573 80.7122 523.674 80.6622 523.765C80.5622 523.951 80.3931 524.09 80.1911 524.151C79.9891 524.213 79.7722 524.192 79.5852 524.093C79.4012 523.992 79.2641 523.822 79.2041 523.62C79.1451 523.418 79.1681 523.2 79.2691 523.015C79.3181 522.923 79.3841 522.841 79.4651 522.775C79.5451 522.708 79.6381 522.658 79.7381 522.628C79.8371 522.597 79.9422 522.586 80.0462 522.596C80.1502 522.606 80.2512 522.637 80.3432 522.686Z" fill="#C4B0B8"/>
<path fill-rule="evenodd" clip-rule="evenodd" d="M80.2622 522.836C80.4072 522.919 80.5131 523.056 80.5581 523.216C80.6041 523.377 80.5851 523.549 80.5061 523.696C80.4271 523.843 80.2941 523.953 80.1341 524.004C79.9751 524.054 79.8032 524.041 79.6532 523.966C79.5802 523.926 79.5161 523.872 79.4641 523.807C79.4131 523.742 79.3741 523.668 79.3521 523.587C79.3291 523.507 79.3232 523.424 79.3332 523.341C79.3442 523.259 79.3711 523.179 79.4121 523.107C79.4501 523.033 79.5011 522.967 79.5641 522.913C79.6271 522.858 79.7011 522.818 79.7801 522.792C79.8591 522.767 79.9431 522.758 80.0251 522.765C80.1081 522.773 80.1892 522.797 80.2622 522.836Z" fill="url(#paint30_radial_321_1362)"/>
<path d="M78.1421 512.888C78.3511 512.5 78.2102 512.017 77.8262 511.81C77.4422 511.604 76.9612 511.751 76.7522 512.14C76.5432 512.528 76.6842 513.011 77.0682 513.218C77.4522 513.424 77.9331 513.277 78.1421 512.888Z" fill="#C4B0B8"/>
<path fill-rule="evenodd" clip-rule="evenodd" d="M77.7491 511.952C77.8941 512.035 78.0001 512.172 78.0461 512.332C78.0911 512.493 78.0731 512.665 77.9931 512.812C77.9141 512.959 77.7811 513.069 77.6221 513.12C77.4631 513.17 77.2901 513.157 77.1411 513.082C76.9961 512.998 76.8901 512.862 76.8451 512.701C76.7991 512.541 76.8181 512.369 76.8971 512.222C76.9761 512.075 77.1091 511.964 77.2681 511.914C77.4281 511.863 77.6001 511.877 77.7491 511.952Z" fill="url(#paint31_radial_321_1362)"/>
<path fill-rule="evenodd" clip-rule="evenodd" d="M64.8882 506.303C64.9802 506.353 65.0612 506.42 65.1272 506.501C65.1922 506.582 65.2412 506.676 65.2702 506.776C65.3002 506.876 65.3091 506.981 65.2981 507.085C65.2871 507.189 65.2552 507.289 65.2052 507.381C65.1062 507.566 64.9372 507.705 64.7362 507.767C64.5342 507.829 64.3171 507.808 64.1311 507.71C63.9471 507.609 63.8102 507.439 63.7502 507.238C63.6912 507.036 63.7131 506.82 63.8131 506.635C63.8611 506.542 63.9282 506.46 64.0082 506.393C64.0892 506.326 64.1812 506.276 64.2812 506.245C64.3812 506.214 64.4862 506.203 64.5912 506.213C64.6952 506.223 64.7962 506.253 64.8882 506.303Z" fill="#C4B0B8"/>
<path fill-rule="evenodd" clip-rule="evenodd" d="M64.8121 506.444C64.9571 506.528 65.0631 506.664 65.1091 506.825C65.1541 506.986 65.1361 507.158 65.0561 507.305C64.9771 507.452 64.8441 507.562 64.6851 507.613C64.5261 507.663 64.3531 507.649 64.2041 507.575C64.0591 507.491 63.9531 507.355 63.9071 507.194C63.8621 507.033 63.8811 506.861 63.9601 506.714C64.0391 506.567 64.1721 506.457 64.3311 506.406C64.4911 506.356 64.6631 506.37 64.8121 506.444Z" fill="url(#paint32_radial_321_1362)"/>
<path fill-rule="evenodd" clip-rule="evenodd" d="M55.5441 508.427C55.6351 508.477 55.7161 508.544 55.7821 508.625C55.8471 508.706 55.8961 508.8 55.9261 508.9C55.9551 509 55.9641 509.105 55.9531 509.209C55.9421 509.313 55.9101 509.413 55.8601 509.505C55.7611 509.69 55.5921 509.829 55.3911 509.891C55.1901 509.953 54.9721 509.932 54.7861 509.834C54.6011 509.733 54.4641 509.562 54.4051 509.36C54.3461 509.158 54.3691 508.941 54.4701 508.756C54.5181 508.664 54.5851 508.582 54.6651 508.516C54.7461 508.449 54.8381 508.399 54.9381 508.368C55.0381 508.338 55.1431 508.327 55.2471 508.337C55.3511 508.347 55.4511 508.378 55.5441 508.427Z" fill="#C4B0B8"/>
<path fill-rule="evenodd" clip-rule="evenodd" d="M55.4631 508.577C55.6081 508.66 55.7141 508.797 55.7601 508.957C55.8051 509.118 55.7861 509.29 55.7071 509.437C55.6281 509.584 55.4951 509.694 55.3361 509.745C55.1771 509.795 55.0041 509.782 54.8551 509.707C54.7101 509.623 54.6041 509.487 54.5581 509.326C54.5131 509.166 54.5321 508.994 54.6111 508.847C54.6901 508.7 54.8231 508.589 54.9821 508.539C55.1421 508.488 55.3141 508.502 55.4631 508.577Z" fill="url(#paint33_radial_321_1362)"/>
<path fill-rule="evenodd" clip-rule="evenodd" d="M49.5211 517.231C49.7061 517.332 49.8421 517.502 49.9021 517.704C49.9611 517.906 49.9381 518.124 49.8371 518.309C49.7891 518.401 49.7221 518.483 49.6421 518.549C49.5611 518.616 49.4692 518.666 49.3692 518.696C49.2692 518.727 49.1641 518.738 49.0601 518.728C48.9561 518.718 48.8551 518.687 48.7631 518.638C48.6721 518.588 48.5901 518.521 48.5251 518.439C48.4591 518.358 48.4101 518.265 48.3801 518.164C48.3511 518.064 48.3411 517.959 48.3521 517.855C48.3631 517.751 48.3941 517.65 48.4441 517.559C48.5441 517.373 48.7131 517.234 48.9151 517.173C49.1171 517.111 49.3351 517.132 49.5211 517.231Z" fill="#C4B0B8"/>
<path fill-rule="evenodd" clip-rule="evenodd" d="M49.4402 517.38C49.5132 517.42 49.5782 517.474 49.6302 517.539C49.6812 517.604 49.7202 517.679 49.7422 517.759C49.7652 517.839 49.7712 517.923 49.7602 518.005C49.7502 518.088 49.7231 518.167 49.6811 518.239C49.6441 518.314 49.5931 518.38 49.5301 518.434C49.4661 518.488 49.3931 518.529 49.3141 518.554C49.2351 518.579 49.1511 518.589 49.0681 518.581C48.9861 518.574 48.9051 518.55 48.8321 518.511C48.6871 518.427 48.5811 518.291 48.5351 518.13C48.4901 517.969 48.5092 517.797 48.5882 517.65C48.6672 517.503 48.8001 517.393 48.9591 517.343C49.1191 517.292 49.2912 517.306 49.4402 517.38Z" fill="url(#paint34_radial_321_1362)"/>
<path fill-rule="evenodd" clip-rule="evenodd" d="M126.588 574.057L126.867 573.54L107.901 563.996L107.644 564.521L126.588 574.057Z" fill="#6F2561"/>
<path fill-rule="evenodd" clip-rule="evenodd" d="M123.986 534.17L123.689 534.674L142.187 545.085L142.376 544.735L123.986 534.17Z" fill="#6F2561"/>
<path fill-rule="evenodd" clip-rule="evenodd" d="M107.832 538.631L108.83 536.777L137.161 554.421L136.466 555.713L107.832 538.631Z" fill="url(#paint35_linear_321_1362)"/>
<path fill-rule="evenodd" clip-rule="evenodd" d="M107.832 538.631L113.628 543.417L136.466 555.713L107.832 538.631Z" fill="#FF4C61"/>
<path opacity="0.5" fill-rule="evenodd" clip-rule="evenodd" d="M109.701 537.319L131.422 543.16L128.766 547.511L133.392 550.074L132.586 551.572L109.701 537.319Z" fill="#C4B0B8"/>
<path d="M46.8241 532.435C46.8241 532.435 44.7071 531.533 44.1611 529.569L44.7791 528.542C45.6151 529.621 46.3931 530.743 47.1101 531.904L46.8241 532.435Z" fill="#B695E5"/>
<g style="mix-blend-mode:soft-light">
<path d="M108.786 523.697L101.107 517.062L101.397 516.522L109.13 523.059L108.786 523.697Z" fill="#B695E5"/>
</g>
<path fill-rule="evenodd" clip-rule="evenodd" d="M70.9631 500.436C70.9631 500.436 72.0571 496.8 74.5691 501.233L70.9631 500.436Z" fill="url(#paint36_linear_321_1362)"/>
<path fill-rule="evenodd" clip-rule="evenodd" d="M49.9931 538.341C49.9931 538.341 49.2481 541.858 52.5211 540.836L49.9931 538.341Z" fill="url(#paint37_linear_321_1362)"/>
<g style="mix-blend-mode:soft-light" opacity="0.5">
<path fill-rule="evenodd" clip-rule="evenodd" d="M120.702 562.306C120.702 562.306 90.3081 556.847 69.2381 549.771L69.1971 550.813C69.1971 550.813 100.942 562.78 119.514 565.183L120.702 562.306Z" fill="#B695E5"/>
</g>
<g style="mix-blend-mode:soft-light">
<path fill-rule="evenodd" clip-rule="evenodd" d="M99.2861 515.699L94.4331 511.829L94.7101 511.314L99.5631 515.185L99.2861 515.699Z" fill="#B695E5"/>
</g>
<g style="mix-blend-mode:soft-light">
<path fill-rule="evenodd" clip-rule="evenodd" d="M89.6501 554.509C89.6501 554.509 90.1962 547.571 92.5612 541.959C92.5612 541.959 90.8731 547.91 89.6501 554.509Z" fill="#B695E5"/>
</g>
<g style="mix-blend-mode:soft-light">
<path fill-rule="evenodd" clip-rule="evenodd" d="M83.196 530.75L103.088 541.289C103.088 541.289 96.091 537.069 83.196 530.75Z" fill="#B695E5"/>
</g>
<g style="mix-blend-mode:soft-light">
<path fill-rule="evenodd" clip-rule="evenodd" d="M98.9812 556.187C98.9812 556.187 102.293 540.748 111.667 529.287C111.681 529.295 104.264 537.526 98.9812 556.187Z" fill="#B695E5"/>
</g>
<path fill-rule="evenodd" clip-rule="evenodd" d="M48.5412 525.184C48.5412 525.184 50.2442 523.754 47.4612 520.881C47.6442 522.354 48.0072 523.799 48.5412 525.184Z" fill="#B695E5"/>
<g style="mix-blend-mode:soft-light">
<path fill-rule="evenodd" clip-rule="evenodd" d="M80.8381 527.684C80.8381 527.684 82.9641 523.193 81.0651 515.501C81.0511 515.493 83.6511 520.895 80.8381 527.684Z" fill="#B695E5"/>
</g>
<g style="mix-blend-mode:soft-light">
<path fill-rule="evenodd" clip-rule="evenodd" d="M76.1501 527.292C76.1501 527.292 80.2301 524.568 77.9131 519.956C77.9211 519.961 78.6191 522.95 76.1501 527.292Z" fill="#B695E5"/>
</g>
<g style="mix-blend-mode:soft-light" opacity="0.36">
<g style="mix-blend-mode:soft-light" opacity="0.36">
<path fill-rule="evenodd" clip-rule="evenodd" d="M84.238 532.606C84.269 532.914 84.2471 533.463 84.6281 533.574C84.8071 533.604 84.987 533.625 85.168 533.635C85.326 533.665 85.48 533.712 85.629 533.774C85.873 533.875 86.14 533.904 86.4 533.857C86.567 533.812 86.5161 533.643 86.4421 533.515C86.3801 533.37 86.281 533.244 86.155 533.149C85.976 533.05 85.8081 532.933 85.6541 532.799C85.5951 532.746 85.562 532.659 85.498 532.602C85.409 532.541 85.315 532.49 85.215 532.45C85.057 532.37 84.877 532.342 84.702 532.37C84.526 532.398 84.364 532.48 84.238 532.606Z" fill="#B695E5"/>
</g>
<g style="mix-blend-mode:soft-light" opacity="0.36">
<path fill-rule="evenodd" clip-rule="evenodd" d="M86.5801 535.055C86.5321 535.049 86.4871 535.029 86.4511 534.998C86.4141 534.967 86.3881 534.925 86.3751 534.879C86.5581 534.54 87.2891 534.78 87.2451 535.165C87.1971 535.613 86.6761 535.391 86.5191 535.16L86.5801 535.055Z" fill="#B695E5"/>
</g>
<g style="mix-blend-mode:soft-light" opacity="0.36">
<path fill-rule="evenodd" clip-rule="evenodd" d="M87.4551 543.556C87.4651 543.335 87.4281 543.126 87.5781 542.955C87.7041 542.815 87.8721 542.72 88.0561 542.684C88.2831 542.649 88.5161 542.663 88.7371 542.726C88.8481 542.73 88.9551 542.766 89.0451 542.83C89.3821 543.146 89.4111 543.756 89.3341 544.17C89.3021 544.411 89.2431 544.649 89.1571 544.877C89.0771 545.026 89.0301 545.194 88.9761 545.355C88.9511 545.494 88.8971 545.626 88.8181 545.744C88.7241 545.825 88.6191 545.891 88.5051 545.94C88.3581 546.014 88.1961 546.051 88.0321 546.047C87.8681 546.044 87.7071 546.001 87.5631 545.921C87.0621 545.626 86.9861 544.786 87.0031 544.253C87.0211 543.821 87.1041 543.159 87.4551 543.556Z" fill="#B695E5"/>
</g>
<g style="mix-blend-mode:soft-light" opacity="0.36">
<path fill-rule="evenodd" clip-rule="evenodd" d="M87.6332 541.559C87.7522 541.685 87.7742 541.752 87.9312 541.683C87.9812 541.651 88.0232 541.609 88.0552 541.56C88.0862 541.51 88.1072 541.454 88.1152 541.396C88.1532 541.183 88.0052 540.808 87.7532 540.836C87.6262 540.856 87.3732 540.927 87.2862 541.026C87.2322 541.157 87.2252 541.303 87.2682 541.438C87.3112 541.573 87.4002 541.688 87.5202 541.764L87.6332 541.559Z" fill="#B695E5"/>
</g>
<g style="mix-blend-mode:soft-light" opacity="0.36">
<path fill-rule="evenodd" clip-rule="evenodd" d="M96.2801 537.482C96.3441 537.546 96.4182 537.598 96.5002 537.636C96.6982 537.743 96.8952 537.849 97.0962 537.957C97.4692 538.158 97.8141 538.417 98.1961 538.622C98.4721 538.762 98.7592 538.879 99.0542 538.971C99.2052 539.026 99.3581 539.074 99.5141 539.113C99.5301 539.082 99.4572 539.035 99.4342 539.004C99.3552 538.9 99.2542 538.809 99.1842 538.702C99.0282 538.458 98.8601 538.207 98.6861 537.975C98.6471 537.937 98.6131 537.894 98.5841 537.847C98.5561 537.784 98.5401 537.706 98.5161 537.642C98.4731 537.521 98.4111 537.408 98.3321 537.307C98.1311 537.088 97.8851 536.917 97.6101 536.805C97.5231 536.758 97.4272 536.739 97.3412 536.697C97.2472 536.646 97.1492 536.6 97.0492 536.561C96.8332 536.495 96.6051 536.471 96.3791 536.492C96.1191 536.502 95.7001 536.447 95.5041 536.677C95.4081 536.786 95.5212 536.909 95.6122 536.983C95.7032 537.058 95.8572 537.144 95.9762 537.234C96.0962 537.324 96.3171 537.523 96.2801 537.482Z" fill="#B695E5"/>
</g>
<g style="mix-blend-mode:soft-light" opacity="0.36">
<path fill-rule="evenodd" clip-rule="evenodd" d="M94.6601 536.259C94.5971 536.153 94.4492 535.974 94.5752 535.849C94.7012 535.724 94.8812 535.828 94.9842 535.902C95.2232 536.081 94.7821 536.277 94.6131 536.157L94.6601 536.259Z" fill="#B695E5"/>
</g>
<g style="mix-blend-mode:soft-light" opacity="0.36">
<path fill-rule="evenodd" clip-rule="evenodd" d="M97.6781 534.567C97.7381 534.674 97.8321 534.756 97.9451 534.802C98.0231 534.828 98.1091 534.823 98.1831 534.788C98.2581 534.753 98.3161 534.69 98.3461 534.613C98.4751 534.373 98.5141 534.179 98.3081 534.006C98.2221 533.953 98.126 533.919 98.025 533.906C97.925 533.892 97.8231 533.901 97.7261 533.93C97.6491 533.96 97.5841 534.014 97.5401 534.085C97.4611 534.232 97.525 534.357 97.603 534.483L97.6781 534.567Z" fill="#B695E5"/>
</g>
<g style="mix-blend-mode:soft-light" opacity="0.36">
<path fill-rule="evenodd" clip-rule="evenodd" d="M108.059 533.173C108.073 532.717 108.142 532.264 108.263 531.825C108.407 531.455 108.571 531.093 108.756 530.741C108.939 530.223 109.085 529.693 109.194 529.155C109.292 528.682 109.504 528.241 109.813 527.87C109.941 527.72 110.098 527.599 110.274 527.512C110.451 527.425 110.643 527.375 110.839 527.365C111.077 527.375 111.312 527.425 111.533 527.513C111.632 527.566 111.733 527.595 111.832 527.634C111.897 527.648 111.96 527.67 112.02 527.698C112.113 527.748 112.092 527.788 112.044 527.876C111.972 528.035 111.852 528.167 111.701 528.256C111.45 528.426 111.231 528.638 111.053 528.884C110.871 529.114 110.681 529.325 110.514 529.567L110.016 530.268C109.87 530.466 109.717 530.661 109.572 530.864C109.426 531.066 109.309 531.276 109.18 531.483C109.05 531.691 108.988 531.84 108.892 532.018C108.831 532.131 108.754 532.227 108.693 532.34C108.646 532.428 108.593 532.511 108.533 532.59C108.484 532.671 108.439 532.755 108.398 532.841C108.297 532.964 108.184 533.075 108.059 533.173Z" fill="#B695E5"/>
</g>
<g style="mix-blend-mode:soft-light" opacity="0.36">
<path fill-rule="evenodd" clip-rule="evenodd" d="M107.746 530.037C107.762 530.115 107.762 530.21 107.822 530.261C107.856 530.286 107.893 530.306 107.932 530.32C108.11 530.368 108.263 530.104 108.333 529.974C108.552 529.602 108.622 529.16 108.529 528.738C108.495 528.594 108.428 528.46 108.334 528.347C108.24 528.233 108.121 528.142 107.986 528.081C107.614 527.973 107.233 528.234 106.995 528.507C106.757 528.779 106.539 529.165 106.643 529.513C106.672 529.635 106.742 529.744 106.84 529.823C106.931 529.866 107.023 529.904 107.118 529.936C107.237 530 107.305 530.117 107.455 530.117C107.558 530.122 107.66 530.094 107.746 530.037Z" fill="#B695E5"/>
</g>
<g style="mix-blend-mode:soft-light" opacity="0.36">
<path fill-rule="evenodd" clip-rule="evenodd" d="M108.938 527.883C108.899 527.879 108.863 527.863 108.834 527.837C108.804 527.811 108.784 527.776 108.776 527.738C108.753 527.7 108.743 527.656 108.748 527.613C108.753 527.569 108.773 527.529 108.803 527.497C108.829 527.469 108.861 527.446 108.896 527.43C108.932 527.415 108.97 527.407 109.009 527.408C109.048 527.409 109.086 527.418 109.121 527.435C109.155 527.452 109.186 527.476 109.211 527.505C109.238 527.552 109.253 527.604 109.255 527.658C109.257 527.712 109.245 527.765 109.22 527.813C109.195 527.865 109.154 527.907 109.102 527.932C109.05 527.957 108.991 527.964 108.935 527.951L108.938 527.883Z" fill="#B695E5"/>
</g>
<g style="mix-blend-mode:soft-light" opacity="0.36">
<path fill-rule="evenodd" clip-rule="evenodd" d="M102.68 520.917C102.65 521.054 102.674 521.198 102.749 521.318C102.762 521.353 102.786 521.384 102.816 521.407C102.847 521.429 102.884 521.442 102.921 521.444C103.177 521.441 103.422 521.347 103.614 521.179C103.676 521.12 103.726 521.05 103.76 520.972C103.795 520.895 103.813 520.811 103.815 520.726C103.794 520.575 103.75 520.428 103.684 520.291C103.638 520.167 103.584 520.051 103.516 519.927C103.486 519.821 103.423 519.728 103.337 519.661C103.25 519.594 103.144 519.557 103.035 519.555C102.916 519.567 102.802 519.607 102.703 519.673C102.604 519.739 102.523 519.829 102.466 519.934C102.403 520.083 102.377 520.245 102.39 520.407C102.401 520.577 102.382 520.72 102.68 520.917Z" fill="#B695E5"/>
</g>
<g style="mix-blend-mode:soft-light" opacity="0.36">
<path fill-rule="evenodd" clip-rule="evenodd" d="M103.089 522.081C103.155 521.977 103.241 521.887 103.341 521.815C103.389 521.841 103.446 521.796 103.491 521.849C103.535 521.902 103.459 522.043 103.423 522.104C103.376 522.184 103.301 522.244 103.212 522.271C103.179 522.279 103.04 522.32 103.069 522.245L103.089 522.081Z" fill="#B695E5"/>
</g>
<g style="mix-blend-mode:soft-light" opacity="0.36">
<path fill-rule="evenodd" clip-rule="evenodd" d="M104.088 535.227C104.173 535.36 104.268 535.509 104.469 535.461C104.553 535.424 104.625 535.362 104.674 535.285C104.724 535.207 104.749 535.116 104.747 535.024C104.756 534.934 104.763 534.832 104.687 534.777C104.612 534.721 104.515 534.684 104.43 534.638C104.23 534.53 104.198 534.243 103.907 534.324C103.838 534.346 103.775 534.382 103.722 534.431C103.669 534.48 103.626 534.539 103.598 534.606C103.527 534.833 103.683 535.052 103.817 535.215L104.088 535.227Z" fill="#B695E5"/>
</g>
<g style="mix-blend-mode:soft-light" opacity="0.36">
<path fill-rule="evenodd" clip-rule="evenodd" d="M102.668 555.62C102.595 555.877 102.596 556.148 102.669 556.404L102.757 556.452C102.812 556.525 102.883 556.585 102.964 556.629C103.045 556.672 103.134 556.698 103.226 556.704C103.81 556.709 104.015 556.2 104.248 555.76C104.481 555.321 104.873 554.722 104.114 554.594C103.778 554.541 103.216 554.414 102.885 554.589C102.707 554.682 102.715 554.782 102.69 554.95C102.631 555.181 102.617 555.421 102.649 555.657L102.668 555.62Z" fill="#B695E5"/>
</g>
<g style="mix-blend-mode:soft-light" opacity="0.36">
<path fill-rule="evenodd" clip-rule="evenodd" d="M106.28 550.64C106.195 550.5 106.008 550.264 106.087 550.07C106.166 549.876 106.266 549.907 106.4 549.841C106.694 549.693 107.037 549.586 107.21 549.982C107.244 550.088 107.253 550.2 107.237 550.31C107.221 550.42 107.179 550.525 107.116 550.617C107.004 550.757 106.676 550.919 106.523 550.771L106.28 550.64Z" fill="#B695E5"/>
</g>
<g style="mix-blend-mode:soft-light" opacity="0.36">
<path fill-rule="evenodd" clip-rule="evenodd" d="M77.8861 506.452C78.1461 506.815 78.1581 506.839 78.5681 506.932C78.8741 507.04 79.2021 507.07 79.5231 507.02C79.9581 506.89 80.0741 506.497 80.3301 506.197C80.4291 506.112 80.5041 506.002 80.5481 505.879C80.5911 505.756 80.6011 505.624 80.5771 505.495C80.5131 505.159 80.3871 504.836 80.2071 504.545C79.8931 504.1 79.4852 503.73 79.0122 503.46C78.5402 503.191 78.0131 503.028 77.4711 502.985C76.8081 502.937 76.0011 502.966 75.5011 503.488C75.2861 503.701 75.1331 503.969 75.0571 504.262C74.9811 504.556 74.9861 504.864 75.0711 505.155C75.1791 505.436 75.3531 505.687 75.5781 505.887C75.8031 506.087 76.0731 506.23 76.3651 506.304L76.7821 506.397C76.9471 506.466 77.1051 506.551 77.2541 506.651C77.4341 506.716 77.6361 506.7 77.8861 506.452Z" fill="#B695E5"/>
</g>
<g style="mix-blend-mode:soft-light" opacity="0.36">
<path fill-rule="evenodd" clip-rule="evenodd" d="M78.7261 508.162C79.1931 507.972 79.101 508 79.475 508.125C79.637 508.183 79.7021 508.137 79.8251 508.247C79.9011 508.336 79.9481 508.447 79.9611 508.563C79.9741 508.68 79.9511 508.798 79.8951 508.901C79.8181 509.045 79.415 509.116 79.277 509.115C79.192 509.118 79.108 509.096 79.035 509.052C78.963 509.008 78.905 508.943 78.868 508.866L78.7261 508.162Z" fill="#B695E5"/>
</g>
<g style="mix-blend-mode:soft-light" opacity="0.36">
<path fill-rule="evenodd" clip-rule="evenodd" d="M60.2361 542.314C60.4811 542.537 60.7841 542.827 61.1691 542.612C61.4251 542.462 61.4731 542.047 61.4291 541.771C61.3131 541.299 61.0491 540.876 60.6751 540.564C60.3301 540.312 59.6911 540.551 59.4631 540.873C58.9991 541.531 59.8981 542.496 60.3861 542.828L60.2361 542.314Z" fill="#B695E5"/>
</g>
<g style="mix-blend-mode:soft-light" opacity="0.36">
<path fill-rule="evenodd" clip-rule="evenodd" d="M63.1851 544.529C63.0811 544.524 62.7532 544.566 62.6662 544.483C62.6182 544.457 62.6481 544.382 62.6201 544.338C62.5701 544.266 62.5351 544.183 62.5191 544.097C62.5031 544.01 62.5051 543.921 62.5261 543.835C62.5751 543.662 62.6791 543.509 62.8231 543.4C62.9671 543.292 63.1431 543.234 63.3231 543.236C63.4401 543.22 63.5601 543.247 63.6591 543.312C63.7581 543.378 63.8292 543.477 63.8612 543.591C63.9032 543.744 63.8871 543.908 63.8161 544.05C63.7451 544.192 63.6231 544.303 63.4751 544.361L63.1851 544.529Z" fill="#B695E5"/>
</g>
<g style="mix-blend-mode:soft-light" opacity="0.36">
<path fill-rule="evenodd" clip-rule="evenodd" d="M117.181 533.473C117.569 533.947 118.102 534.282 118.698 534.425C119.077 534.541 119.552 534.735 119.904 534.447C120.727 533.771 119.244 532.112 118.742 531.635C118.308 531.217 117.791 530.895 117.225 530.69C116.886 530.581 116.142 530.494 115.82 530.714C115.405 530.997 115.408 531.586 115.592 531.976C115.994 532.921 116.988 533.256 117.652 533.945L117.181 533.473Z" fill="#B695E5"/>
</g>
<g style="mix-blend-mode:soft-light" opacity="0.36">
<path fill-rule="evenodd" clip-rule="evenodd" d="M116.819 533.854C116.72 534.075 116.653 534.309 116.62 534.549C116.63 534.678 116.644 534.883 116.75 534.984C116.825 535.032 116.911 535.062 117.001 535.068C117.09 535.075 117.18 535.059 117.261 535.022C117.323 535.004 117.379 534.972 117.425 534.927C117.471 534.882 117.504 534.827 117.523 534.766C117.535 534.67 117.46 534.545 117.42 534.462C117.345 534.31 117.252 534.167 117.143 534.036C117.1 533.967 117.048 533.904 116.99 533.848C116.889 533.764 116.808 533.819 116.705 533.8L116.819 533.854Z" fill="#B695E5"/>
</g>
<g style="mix-blend-mode:soft-light" opacity="0.36">
<path fill-rule="evenodd" clip-rule="evenodd" d="M121.051 536.763L121.339 536.554C121.441 536.634 121.594 536.662 121.608 536.812C121.594 536.954 121.532 537.088 121.433 537.191C121.383 537.242 121.317 537.275 121.246 537.285C121.175 537.294 121.103 537.279 121.041 537.243C120.888 537.16 120.904 536.983 120.953 536.831L121.051 536.763Z" fill="#B695E5"/>
</g>
<g style="mix-blend-mode:soft-light" opacity="0.36">
<path fill-rule="evenodd" clip-rule="evenodd" d="M119.854 553.509C119.895 553.571 119.956 553.619 120.026 553.644C120.096 553.67 120.173 553.672 120.245 553.65C120.367 553.621 120.474 553.548 120.545 553.443C120.615 553.339 120.643 553.212 120.624 553.088C120.566 552.729 120.277 552.209 119.898 552.1C119.662 552.031 119.263 552.177 119.273 552.463C119.273 552.624 119.291 552.785 119.329 552.941C119.426 553.172 119.597 553.364 119.815 553.487L119.854 553.509Z" fill="#B695E5"/>
</g>
<g style="mix-blend-mode:soft-light" opacity="0.36">
<path fill-rule="evenodd" clip-rule="evenodd" d="M54.7681 504.587C54.8081 504.736 54.8102 504.806 54.9242 504.9C55.0422 505.017 55.2011 505.083 55.3681 505.085C55.7561 504.999 56.1042 504.782 56.3512 504.47C56.4512 504.367 56.5261 504.242 56.5701 504.106C56.6131 503.97 56.6251 503.825 56.6031 503.683C56.5901 503.517 56.5412 503.357 56.4602 503.211C56.3792 503.066 56.2681 502.94 56.1351 502.841C56.0131 502.729 55.8581 502.659 55.6941 502.64C55.5301 502.62 55.3641 502.653 55.2191 502.734C54.9111 502.877 54.6351 503.082 54.4101 503.337C54.3291 503.439 54.2742 503.558 54.2492 503.685C54.2242 503.812 54.2291 503.943 54.2641 504.068C54.3151 504.318 54.4541 504.684 54.7681 504.587Z" fill="#B695E5"/>
</g>
<g style="mix-blend-mode:soft-light" opacity="0.36">
<path fill-rule="evenodd" clip-rule="evenodd" d="M56.9962 502.852C56.9112 502.806 56.8122 502.753 56.8342 502.659C56.8722 502.582 56.9262 502.513 56.9922 502.457C57.0582 502.401 57.1342 502.359 57.2172 502.333C57.3472 502.303 57.4832 502.322 57.6002 502.386C57.6642 502.452 57.7022 502.538 57.7062 502.629C57.7202 502.696 57.7132 502.764 57.6862 502.826C57.6582 502.888 57.6122 502.94 57.5542 502.974C57.4702 503.02 57.2812 503.148 57.1922 503.063L56.9962 502.852Z" fill="#B695E5"/>
</g>
<g style="mix-blend-mode:soft-light" opacity="0.36">
<path fill-rule="evenodd" clip-rule="evenodd" d="M42.6221 504.068C42.7381 504.153 42.8801 504.193 43.0231 504.182C43.2841 504.163 43.5371 504.085 43.7621 503.953C44.0691 503.799 44.3181 503.55 44.4731 503.243C44.5081 503.12 44.5071 502.989 44.4701 502.866C44.4321 502.744 44.3601 502.635 44.2611 502.553C44.0041 502.379 43.6931 502.302 43.3831 502.335C43.1071 502.373 42.8431 502.476 42.6151 502.637C42.3861 502.797 42.2001 503.01 42.0701 503.258C41.8221 503.834 42.6281 504.294 42.6221 504.068Z" fill="#B695E5"/>
</g>
<g style="mix-blend-mode:soft-light" opacity="0.36">
<path fill-rule="evenodd" clip-rule="evenodd" d="M45.8352 502.711C45.7502 502.742 45.6582 502.748 45.5702 502.729C45.5772 502.627 45.5031 502.555 45.5171 502.449C45.5421 502.346 45.6062 502.257 45.6952 502.199C45.7502 502.158 45.8152 502.134 45.8832 502.127C45.9512 502.12 46.0192 502.131 46.0812 502.159C46.2222 502.235 46.2282 502.3 46.2252 502.447C46.2222 502.595 46.2322 502.583 46.1202 502.642C46.0522 502.685 45.9801 502.721 45.9051 502.749L45.8352 502.711Z" fill="#B695E5"/>
</g>
</g>
<path fill-rule="evenodd" clip-rule="evenodd" d="M99.0631 554.714C99.5061 554.953 99.7271 555.411 99.5521 555.736C99.3771 556.061 98.8741 556.129 98.4301 555.89C97.9861 555.651 97.7691 555.195 97.9441 554.87C98.1191 554.545 98.6191 554.476 99.0631 554.714Z" fill="url(#paint38_linear_321_1362)"/>
<path fill-rule="evenodd" clip-rule="evenodd" d="M98.9961 554.839C99.3471 555.027 99.5181 555.386 99.3801 555.643C99.2411 555.9 98.8481 555.954 98.4971 555.766C98.1471 555.577 97.9751 555.219 98.1141 554.961C98.2521 554.704 98.6491 554.652 98.9961 554.839Z" fill="#B695E5"/>
<path fill-rule="evenodd" clip-rule="evenodd" d="M110.036 530.319C110.238 530.404 110.399 530.565 110.483 530.767C110.568 530.97 110.57 531.197 110.489 531.401C110.363 531.581 110.173 531.704 109.957 531.745C109.742 531.786 109.519 531.74 109.336 531.619C109.134 531.533 108.973 531.372 108.888 531.17C108.803 530.967 108.8 530.739 108.881 530.535C109.007 530.355 109.199 530.232 109.415 530.192C109.63 530.151 109.854 530.197 110.036 530.319Z" fill="url(#paint39_linear_321_1362)"/>
<path fill-rule="evenodd" clip-rule="evenodd" d="M109.961 530.457C110.121 530.525 110.247 530.651 110.314 530.811C110.381 530.97 110.383 531.149 110.319 531.31C110.22 531.451 110.069 531.548 109.9 531.58C109.73 531.612 109.554 531.576 109.411 531.48C109.252 531.413 109.125 531.286 109.058 531.127C108.991 530.968 108.99 530.789 109.053 530.628C109.152 530.487 109.303 530.389 109.472 530.358C109.642 530.326 109.818 530.362 109.961 530.457Z" fill="#B695E5"/>
<path d="M104.368 542.485C104.61 542.035 104.446 541.477 104.001 541.237C103.556 540.998 102.999 541.168 102.757 541.618C102.515 542.067 102.68 542.626 103.125 542.865C103.569 543.104 104.126 542.934 104.368 542.485Z" fill="url(#paint40_linear_321_1362)"/>
<path fill-rule="evenodd" clip-rule="evenodd" d="M103.908 541.41C104.076 541.502 104.201 541.658 104.255 541.842C104.309 542.026 104.287 542.224 104.196 542.392C104.106 542.561 103.952 542.688 103.769 542.744C103.585 542.801 103.387 542.782 103.217 542.693C103.049 542.6 102.925 542.445 102.871 542.261C102.817 542.077 102.838 541.879 102.93 541.711C103.02 541.541 103.174 541.415 103.357 541.358C103.54 541.302 103.738 541.32 103.908 541.41Z" fill="#B695E5"/>
<path style="mix-blend-mode:screen" d="M104.388 536.47C105.083 536.556 105.754 536.778 106.362 537.125C106.97 537.472 107.503 537.936 107.93 538.491C108.358 539.046 108.671 539.679 108.851 540.356C109.032 541.032 109.076 541.738 108.982 542.432C108.804 543.84 108.077 545.122 106.961 545.998C105.844 546.875 104.427 547.276 103.016 547.115C102.321 547.029 101.651 546.806 101.043 546.459C100.435 546.112 99.902 545.647 99.475 545.093C99.047 544.538 98.7341 543.905 98.5541 543.228C98.3731 542.552 98.3281 541.847 98.4221 541.153C98.6001 539.744 99.3261 538.463 100.443 537.586C101.56 536.71 102.977 536.309 104.388 536.47Z" fill="url(#paint41_radial_321_1362)"/>
<path style="mix-blend-mode:screen" d="M72.972 496.028C73.526 496.096 74.0621 496.274 74.5471 496.551C75.0321 496.828 75.4581 497.198 75.7991 497.64C76.1401 498.083 76.39 498.588 76.535 499.128C76.679 499.667 76.7151 500.23 76.6401 500.784C76.4971 501.908 75.917 502.931 75.025 503.63C74.133 504.33 73.002 504.65 71.876 504.521C71.322 504.452 70.7871 504.274 70.3021 503.997C69.8161 503.72 69.391 503.349 69.05 502.907C68.709 502.464 68.4591 501.958 68.3151 501.419C68.1711 500.879 68.135 500.316 68.209 499.762C68.353 498.639 68.933 497.617 69.824 496.918C70.716 496.219 71.846 495.899 72.972 496.028Z" fill="url(#paint42_radial_321_1362)"/>
<path style="mix-blend-mode:screen" d="M36.8021 502.557C37.3561 502.625 37.8921 502.803 38.3771 503.08C38.8621 503.357 39.2881 503.727 39.6291 504.169C39.9701 504.611 40.2201 505.117 40.3651 505.657C40.5091 506.196 40.5451 506.759 40.4701 507.313C40.3291 508.438 39.7491 509.461 38.8571 510.161C37.9651 510.861 36.8331 511.18 35.7061 511.05C35.1521 510.982 34.6171 510.804 34.1311 510.527C33.6461 510.251 33.2211 509.88 32.8791 509.438C32.5381 508.996 32.2881 508.49 32.1441 507.95C31.9991 507.411 31.9631 506.848 32.0381 506.294C32.1811 505.17 32.7611 504.147 33.6521 503.447C34.5441 502.747 35.6761 502.428 36.8021 502.557Z" fill="url(#paint43_radial_321_1362)"/>
<path style="mix-blend-mode:screen" d="M51.0592 537.635C51.3452 537.671 51.6221 537.762 51.8731 537.905C52.1231 538.048 52.3432 538.24 52.5202 538.468C52.6962 538.697 52.8251 538.958 52.9001 539.236C52.9751 539.515 52.9932 539.806 52.9552 540.092C52.8812 540.673 52.5811 541.202 52.1201 541.564C51.6601 541.926 51.0751 542.091 50.4931 542.025C50.2061 541.989 49.9292 541.897 49.6792 541.754C49.4282 541.611 49.2081 541.42 49.0321 541.191C48.8561 540.962 48.7271 540.701 48.6521 540.422C48.5781 540.143 48.5592 539.852 48.5982 539.565C48.6732 538.985 48.9721 538.457 49.4331 538.096C49.8931 537.735 50.4772 537.569 51.0592 537.635Z" fill="url(#paint44_radial_321_1362)"/>
<path style="mix-blend-mode:screen" d="M109.751 529.298C110.02 529.33 110.28 529.416 110.516 529.549C110.751 529.683 110.958 529.862 111.124 530.076C111.29 530.29 111.411 530.535 111.482 530.796C111.552 531.058 111.57 531.331 111.534 531.599C111.466 532.143 111.186 532.637 110.755 532.975C110.323 533.313 109.776 533.467 109.232 533.403C108.964 533.371 108.706 533.285 108.472 533.151C108.237 533.018 108.032 532.839 107.867 532.626C107.702 532.412 107.582 532.168 107.512 531.908C107.442 531.647 107.425 531.376 107.461 531.108C107.528 530.566 107.806 530.072 108.235 529.734C108.663 529.395 109.208 529.238 109.751 529.298Z" fill="url(#paint45_radial_321_1362)"/>
<path style="mix-blend-mode:screen" d="M98.8091 553.63C99.0771 553.663 99.3351 553.749 99.5691 553.882C99.8041 554.016 100.009 554.195 100.174 554.409C100.339 554.623 100.459 554.867 100.529 555.128C100.598 555.388 100.615 555.66 100.579 555.928C100.51 556.471 100.23 556.965 99.8001 557.303C99.3701 557.641 98.8231 557.795 98.2801 557.733C98.0121 557.7 97.7531 557.614 97.5181 557.481C97.2841 557.347 97.0781 557.168 96.9131 556.954C96.7481 556.74 96.6271 556.496 96.5581 556.235C96.4881 555.974 96.4711 555.702 96.5071 555.434C96.5761 554.891 96.8561 554.397 97.2871 554.059C97.7181 553.721 98.2651 553.567 98.8091 553.63Z" fill="url(#paint46_radial_321_1362)"/>
<defs>
<radialGradient id="paint0_radial_321_1362" cx="0" cy="0" r="1" gradientUnits="userSpaceOnUse" gradientTransform="translate(453.753 432.606) rotate(-32.6268) scale(126.439 60.6876)">
<stop stop-color="#2C6AFF"/>
<stop offset="1" stop-opacity="0"/>
</radialGradient>
<radialGradient id="paint1_radial_321_1362" cx="0" cy="0" r="1" gradientUnits="userSpaceOnUse" gradientTransform="translate(346.483 277.452) scale(247.518 247.487)">
<stop offset="0.81" stop-color="#008BC4"/>
<stop offset="0.979167" stop-opacity="0"/>
</radialGradient>
<radialGradient id="paint2_radial_321_1362" cx="0" cy="0" r="1" gradientUnits="userSpaceOnUse" gradientTransform="translate(211.695 175.25) scale(349.568 349.568)">
<stop offset="0.00558659" stop-color="#0CB9C4"/>
<stop offset="0.2058" stop-color="#0C96C1"/>
<stop offset="0.3613" stop-color="#0B79B7"/>
<stop offset="0.5018" stop-color="#096EA7"/>
<stop offset="0.6334" stop-color="#075E8F"/>
<stop offset="0.7576" stop-color="#044A72"/>
<stop offset="0.8715" stop-color="#003C74"/>
</radialGradient>
<linearGradient id="paint3_linear_321_1362" x1="414.743" y1="219.757" x2="414.743" y2="229.958" gradientUnits="userSpaceOnUse">
<stop stop-color="#43991F"/>
<stop offset="1" stop-color="#4BFF00" stop-opacity="0"/>
</linearGradient>
<linearGradient id="paint4_linear_321_1362" x1="128.848" y1="217.334" x2="441.891" y2="217.334" gradientUnits="userSpaceOnUse">
<stop stop-color="#2CB3FF"/>
<stop offset="0.0885417" stop-color="#2CA6FF"/>
<stop offset="0.2325" stop-color="#2DCAFC"/>
<stop offset="0.3947" stop-color="#32AEF3"/>
<stop offset="0.5382" stop-color="#3A7EE3"/>
<stop offset="0.6707" stop-color="#446ACD"/>
<stop offset="0.7958" stop-color="#4268B1"/>
<stop offset="0.9136" stop-color="#1F598E"/>
<stop offset="1" stop-color="#005D72"/>
</linearGradient>
<linearGradient id="paint5_linear_321_1362" x1="390.548" y1="224.617" x2="390.548" y2="478.781" gradientUnits="userSpaceOnUse">
<stop stop-color="#43991F"/>
<stop offset="1" stop-color="#4BFF00" stop-opacity="0"/>
</linearGradient>
<linearGradient id="paint6_linear_321_1362" x1="218.572" y1="331.014" x2="218.572" y2="468.817" gradientUnits="userSpaceOnUse">
<stop stop-color="#43991F"/>
<stop offset="1" stop-color="#4BFF00" stop-opacity="0"/>
</linearGradient>
<linearGradient id="paint7_linear_321_1362" x1="217.831" y1="149.11" x2="217.831" y2="189.778" gradientUnits="userSpaceOnUse">
<stop stop-color="#43991F"/>
<stop offset="1" stop-color="#4BFF00" stop-opacity="0"/>
</linearGradient>
<linearGradient id="paint8_linear_321_1362" x1="197.494" y1="161.056" x2="197.494" y2="184.325" gradientUnits="userSpaceOnUse">
<stop stop-color="#43991F"/>
<stop offset="1" stop-color="#4BFF00" stop-opacity="0"/>
</linearGradient>
<linearGradient id="paint9_linear_321_1362" x1="506.291" y1="345.582" x2="506.291" y2="395.509" gradientUnits="userSpaceOnUse">
<stop stop-color="#43991F"/>
<stop offset="1" stop-color="#4BFF00" stop-opacity="0"/>
</linearGradient>
<linearGradient id="paint10_linear_321_1362" x1="367.378" y1="62.2966" x2="367.378" y2="305.749" gradientUnits="userSpaceOnUse">
<stop stop-color="#43991F"/>
<stop offset="1" stop-color="#4BFF00" stop-opacity="0"/>
</linearGradient>
<linearGradient id="paint11_linear_321_1362" x1="169.752" y1="574.871" x2="130.327" y2="553.645" gradientUnits="userSpaceOnUse">
<stop stop-opacity="0"/>
<stop offset="1" stop-color="#106D90"/>
</linearGradient>
<linearGradient id="paint12_linear_321_1362" x1="144.234" y1="541.284" x2="117.838" y2="527.073" gradientUnits="userSpaceOnUse">
<stop stop-color="#A43440"/>
<stop offset="1" stop-color="#C73634"/>
</linearGradient>
<linearGradient id="paint13_linear_321_1362" x1="124.731" y1="577.508" x2="98.335" y2="563.296" gradientUnits="userSpaceOnUse">
<stop stop-color="#A43440"/>
<stop offset="1" stop-color="#C73634"/>
</linearGradient>
<radialGradient id="paint14_radial_321_1362" cx="0" cy="0" r="1" gradientUnits="userSpaceOnUse" gradientTransform="translate(63.9051 515.432) rotate(-61.702) scale(34.063 61.4731)">
<stop stop-color="#F4BAB3"/>
<stop offset="0.77" stop-color="#8D6FC7"/>
<stop offset="0.96" stop-color="#B695E5"/>
</radialGradient>
<radialGradient id="paint15_radial_321_1362" cx="0" cy="0" r="1" gradientUnits="userSpaceOnUse" gradientTransform="translate(35.4211 506.231) rotate(-61.702) scale(9.15601 8.1686)">
<stop offset="0.02" stop-color="#AB5E75"/>
<stop offset="0.25" stop-color="#9F577B"/>
<stop offset="0.67" stop-color="#7F458C"/>
<stop offset="0.99" stop-color="#61349C"/>
</radialGradient>
<linearGradient id="paint16_linear_321_1362" x1="37.2172" y1="507.195" x2="33.9192" y2="505.419" gradientUnits="userSpaceOnUse">
<stop stop-color="#FFFF18"/>
<stop offset="1" stop-color="#FF7400"/>
</linearGradient>
<radialGradient id="paint17_radial_321_1362" cx="0" cy="0" r="1" gradientUnits="userSpaceOnUse" gradientTransform="translate(106.642 544.884) rotate(-61.702) scale(16.1744 29.336)">
<stop offset="0.02" stop-color="#8881BC"/>
<stop offset="0.29" stop-color="#8375B7"/>
<stop offset="0.77" stop-color="#7555AA"/>
<stop offset="0.99" stop-color="#6D43A3"/>
</radialGradient>
<radialGradient id="paint18_radial_321_1362" cx="0" cy="0" r="1" gradientUnits="userSpaceOnUse" gradientTransform="translate(66.9711 523.436) rotate(-61.702) scale(17.199 17.0304)">
<stop offset="0.02" stop-color="#8881BC"/>
<stop offset="0.29" stop-color="#8375B7"/>
<stop offset="0.77" stop-color="#7555AA"/>
<stop offset="0.99" stop-color="#6D43A3"/>
</radialGradient>
<radialGradient id="paint19_radial_321_1362" cx="0" cy="0" r="1" gradientUnits="userSpaceOnUse" gradientTransform="translate(52.2952 516.348) rotate(-61.702) scale(21.3977 35.3445)">
<stop offset="0.02" stop-color="#725EB0"/>
<stop offset="0.38" stop-color="#6D52AA"/>
<stop offset="0.99" stop-color="#61349C"/>
</radialGradient>
<linearGradient id="paint20_linear_321_1362" x1="75.7731" y1="527.734" x2="52.7151" y2="515.32" gradientUnits="userSpaceOnUse">
<stop stop-color="#FFFF29"/>
<stop offset="1" stop-color="#FF7E59"/>
</linearGradient>
<radialGradient id="paint21_radial_321_1362" cx="0" cy="0" r="1" gradientUnits="userSpaceOnUse" gradientTransform="translate(128.411 556.289) rotate(-61.702) scale(6.35389 11.5242)">
<stop offset="0.02" stop-color="#9579A7"/>
<stop offset="0.38" stop-color="#6D52AA"/>
<stop offset="0.99" stop-color="#61349C"/>
</radialGradient>
<radialGradient id="paint22_radial_321_1362" cx="0" cy="0" r="1" gradientUnits="userSpaceOnUse" gradientTransform="translate(47.5921 512.839) rotate(-61.702) scale(11.7094 11.5945)">
<stop offset="0.02" stop-color="#8881BC"/>
<stop offset="0.29" stop-color="#8375B7"/>
<stop offset="0.77" stop-color="#7555AA"/>
<stop offset="0.99" stop-color="#6D43A3"/>
</radialGradient>
<linearGradient id="paint23_linear_321_1362" x1="95.694" y1="539.47" x2="94.304" y2="538.721" gradientUnits="userSpaceOnUse">
<stop stop-color="#8DC7FF"/>
<stop offset="0.32" stop-color="#5C4D86"/>
</linearGradient>
<radialGradient id="paint24_radial_321_1362" cx="0" cy="0" r="1" gradientUnits="userSpaceOnUse" gradientTransform="translate(95.4341 539.486) rotate(-61.7016) scale(0.631791 0.625603)">
<stop offset="0.02" stop-color="#8881BC"/>
<stop offset="0.29" stop-color="#8375B7"/>
<stop offset="0.77" stop-color="#7555AA"/>
<stop offset="1" stop-color="#6D43A3"/>
</radialGradient>
<linearGradient id="paint25_linear_321_1362" x1="92.2641" y1="537.623" x2="90.8711" y2="536.873" gradientUnits="userSpaceOnUse">
<stop stop-color="#8DC7FF"/>
<stop offset="0.32" stop-color="#5C4D86"/>
</linearGradient>
<radialGradient id="paint26_radial_321_1362" cx="0" cy="0" r="1" gradientUnits="userSpaceOnUse" gradientTransform="translate(91.9902 537.631) rotate(-61.7024) scale(0.631786 0.625585)">
<stop offset="0.02" stop-color="#8881BC"/>
<stop offset="0.29" stop-color="#8375B7"/>
<stop offset="0.77" stop-color="#7555AA"/>
<stop offset="1" stop-color="#6D43A3"/>
</radialGradient>
<radialGradient id="paint27_radial_321_1362" cx="0" cy="0" r="1" gradientUnits="userSpaceOnUse" gradientTransform="translate(62.2762 536.601) rotate(-61.7019) scale(0.631789 0.625596)">
<stop stop-color="#F4BAB3"/>
<stop offset="1" stop-color="#8D6FC7"/>
</radialGradient>
<radialGradient id="paint28_radial_321_1362" cx="0" cy="0" r="1" gradientUnits="userSpaceOnUse" gradientTransform="translate(53.0642 530.047) rotate(-61.7023) scale(0.631787 0.62559)">
<stop stop-color="#F4BAB3"/>
<stop offset="1" stop-color="#8D6FC7"/>
</radialGradient>
<radialGradient id="paint29_radial_321_1362" cx="0" cy="0" r="1" gradientUnits="userSpaceOnUse" gradientTransform="translate(73.6281 534.204) rotate(-61.7025) scale(0.631786 0.625587)">
<stop stop-color="#F4BAB3"/>
<stop offset="1" stop-color="#8D6FC7"/>
</radialGradient>
<radialGradient id="paint30_radial_321_1362" cx="0" cy="0" r="1" gradientUnits="userSpaceOnUse" gradientTransform="translate(80.3471 523.741) rotate(-61.7024) scale(0.631786 0.625585)">
<stop stop-color="#F4BAB3"/>
<stop offset="1" stop-color="#8D6FC7"/>
</radialGradient>
<radialGradient id="paint31_radial_321_1362" cx="0" cy="0" r="1" gradientUnits="userSpaceOnUse" gradientTransform="translate(77.8131 512.845) rotate(-61.7013) scale(0.631793 0.62561)">
<stop stop-color="#F4BAB3"/>
<stop offset="1" stop-color="#8D6FC7"/>
</radialGradient>
<radialGradient id="paint32_radial_321_1362" cx="0" cy="0" r="1" gradientUnits="userSpaceOnUse" gradientTransform="translate(64.8341 507.318) rotate(-61.7019) scale(0.631788 0.625596)">
<stop stop-color="#F4BAB3"/>
<stop offset="1" stop-color="#8D6FC7"/>
</radialGradient>
<radialGradient id="paint33_radial_321_1362" cx="0" cy="0" r="1" gradientUnits="userSpaceOnUse" gradientTransform="translate(55.4671 509.439) rotate(-61.7019) scale(0.631788 0.625596)">
<stop stop-color="#F4BAB3"/>
<stop offset="1" stop-color="#8D6FC7"/>
</radialGradient>
<radialGradient id="paint34_radial_321_1362" cx="0" cy="0" r="1" gradientUnits="userSpaceOnUse" gradientTransform="translate(49.4312 518.25) rotate(-61.7016) scale(0.631791 0.625602)">
<stop stop-color="#F4BAB3"/>
<stop offset="1" stop-color="#8D6FC7"/>
</radialGradient>
<linearGradient id="paint35_linear_321_1362" x1="137.313" y1="554.139" x2="107.984" y2="538.348" gradientUnits="userSpaceOnUse">
<stop stop-color="#A43411"/>
<stop offset="1" stop-color="#C73634"/>
</linearGradient>
<linearGradient id="paint36_linear_321_1362" x1="72.5031" y1="501.265" x2="73.4491" y2="499.508" gradientUnits="userSpaceOnUse">
<stop stop-color="#FFFF18"/>
<stop offset="1" stop-color="#FF7400"/>
</linearGradient>
<linearGradient id="paint37_linear_321_1362" x1="50.6041" y1="540.802" x2="51.4941" y2="539.149" gradientUnits="userSpaceOnUse">
<stop stop-color="#FFFF18"/>
<stop offset="1" stop-color="#FF7400"/>
</linearGradient>
<linearGradient id="paint38_linear_321_1362" x1="99.5521" y1="555.736" x2="97.9441" y2="554.87" gradientUnits="userSpaceOnUse">
<stop stop-color="#8DC7FF"/>
<stop offset="0.32" stop-color="#5C4D86"/>
</linearGradient>
<linearGradient id="paint39_linear_321_1362" x1="110.494" y1="531.404" x2="108.887" y2="530.538" gradientUnits="userSpaceOnUse">
<stop stop-color="#8DC7FF"/>
<stop offset="0.32" stop-color="#5C4D86"/>
</linearGradient>
<linearGradient id="paint40_linear_321_1362" x1="104.368" y1="542.485" x2="102.76" y2="541.619" gradientUnits="userSpaceOnUse">
<stop stop-color="#8DC7FF"/>
<stop offset="0.32" stop-color="#5C4D86"/>
</linearGradient>
<radialGradient id="paint41_radial_321_1362" cx="0" cy="0" r="1" gradientUnits="userSpaceOnUse" gradientTransform="translate(103.716 541.894) rotate(-82.7944) scale(5.38395 5.317)">
<stop stop-color="#003CEE"/>
<stop offset="0.06" stop-color="#0036D6"/>
<stop offset="0.2" stop-color="#00289E"/>
<stop offset="0.34" stop-color="#001C6D"/>
<stop offset="0.48" stop-color="#001246"/>
<stop offset="0.62" stop-color="#000A27"/>
<stop offset="0.75" stop-color="#000412"/>
<stop offset="0.88" stop-color="#000104"/>
<stop offset="1"/>
</radialGradient>
<radialGradient id="paint42_radial_321_1362" cx="0" cy="0" r="1" gradientUnits="userSpaceOnUse" gradientTransform="translate(72.3931 500.235) rotate(-82.7943) scale(4.29561 4.24219)">
<stop stop-color="#FF9A00"/>
<stop offset="0.09" stop-color="#D68100"/>
<stop offset="0.23" stop-color="#9E5F00"/>
<stop offset="0.36" stop-color="#6E4200"/>
<stop offset="0.5" stop-color="#462A00"/>
<stop offset="0.63" stop-color="#271800"/>
<stop offset="0.76" stop-color="#120B00"/>
<stop offset="0.89" stop-color="#040300"/>
<stop offset="1"/>
</radialGradient>
<radialGradient id="paint43_radial_321_1362" cx="0" cy="0" r="1" gradientUnits="userSpaceOnUse" gradientTransform="translate(36.2741 506.781) rotate(-82.7943) scale(4.29561 4.24218)">
<stop stop-color="#FF9A00"/>
<stop offset="0.09" stop-color="#D68100"/>
<stop offset="0.23" stop-color="#9E5F00"/>
<stop offset="0.36" stop-color="#6E4200"/>
<stop offset="0.5" stop-color="#462A00"/>
<stop offset="0.63" stop-color="#271800"/>
<stop offset="0.76" stop-color="#120B00"/>
<stop offset="0.89" stop-color="#040300"/>
<stop offset="1"/>
</radialGradient>
<radialGradient id="paint44_radial_321_1362" cx="0" cy="0" r="1" gradientUnits="userSpaceOnUse" gradientTransform="translate(50.8381 539.913) rotate(-82.7944) scale(2.22003 2.19243)">
<stop stop-color="#FF9A00"/>
<stop offset="0.09" stop-color="#D68100"/>
<stop offset="0.23" stop-color="#9E5F00"/>
<stop offset="0.36" stop-color="#6E4200"/>
<stop offset="0.5" stop-color="#462A00"/>
<stop offset="0.63" stop-color="#271800"/>
<stop offset="0.76" stop-color="#120B00"/>
<stop offset="0.89" stop-color="#040300"/>
<stop offset="1"/>
</radialGradient>
<radialGradient id="paint45_radial_321_1362" cx="0" cy="0" r="1" gradientUnits="userSpaceOnUse" gradientTransform="translate(109.47 531.416) rotate(-82.7944) scale(2.07556 2.04976)">
<stop stop-color="#003CEE"/>
<stop offset="0.06" stop-color="#0036D6"/>
<stop offset="0.2" stop-color="#00289E"/>
<stop offset="0.34" stop-color="#001C6D"/>
<stop offset="0.48" stop-color="#001246"/>
<stop offset="0.62" stop-color="#000A27"/>
<stop offset="0.75" stop-color="#000412"/>
<stop offset="0.88" stop-color="#000104"/>
<stop offset="1"/>
</radialGradient>
<radialGradient id="paint46_radial_321_1362" cx="0" cy="0" r="1" gradientUnits="userSpaceOnUse" gradientTransform="translate(98.5901 555.824) rotate(-82.7945) scale(2.07556 2.04974)">
<stop stop-color="#003CEE"/>
<stop offset="0.06" stop-color="#0036D6"/>
<stop offset="0.2" stop-color="#00289E"/>
<stop offset="0.34" stop-color="#001C6D"/>
<stop offset="0.48" stop-color="#001246"/>
<stop offset="0.62" stop-color="#000A27"/>
<stop offset="0.75" stop-color="#000412"/>
<stop offset="0.88" stop-color="#000104"/>
<stop offset="1"/>
</radialGradient>
<clipPath id="clip0_321_1362">
<rect width="435" height="435" fill="white" transform="translate(129 60)"/>
</clipPath>
</defs>
</svg>
