<svg xmlns="http://www.w3.org/2000/svg" version="1.1" xmlns:xlink="http://www.w3.org/1999/xlink" xmlns:svgjs="http://svgjs.com/svgjs" width="1440" height="560" preserveAspectRatio="none" viewBox="0 0 1440 560"><g mask="url(&quot;#SvgjsMask1079&quot;)" fill="none"><rect width="1440" height="560" x="0" y="0" fill="rgba(172, 170, 170, 1)"></rect><path d="M0,342.46C64.161,342.828,120.756,306.57,175.137,272.519C230.093,238.107,287.623,202.606,316.258,144.43C345.255,85.518,333.817,17.802,332.827,-47.853C331.689,-123.361,359.077,-211.222,310.031,-268.644C261.007,-326.04,170.512,-316.31,95.602,-325.591C31.689,-333.509,-29.958,-328.743,-93.563,-318.645C-166.359,-307.088,-249.549,-313.346,-302.766,-262.348C-356.751,-210.614,-373.019,-127.997,-370.485,-53.268C-368.152,15.548,-325.13,73.306,-289.389,132.159C-257.556,184.577,-223.463,234.467,-173.852,270.519C-122.068,308.15,-64.012,342.093,0,342.46" fill="#939090"></path><path d="M1440 1112.031C1562.841 1113.817 1691.007 1176.4650000000001 1800.969 1121.6779999999999 1913.1680000000001 1065.777 1969.373 939.505 2018.092 824.006 2065.732 711.065 2113.282 585.414 2076.496 468.486 2040.899 355.336 1918.409 300.876 1828.992 222.93599999999998 1752.862 156.57799999999997 1682.853 87.594 1591.101 45.39599999999996 1487.125-2.423999999999978 1378.629-48.81600000000003 1264.846-36.52099999999996 1139.856-23.014999999999986 996.754 11.254000000000019 928.716 116.97000000000003 860.689 222.66899999999998 940.217 361.296 928.279 486.426 917.148 603.095 832.597 710.668 861.231 824.315 891.516 944.514 974.719 1056.098 1085.716 1111.277 1193.651 1164.933 1319.477 1110.278 1440 1112.031" fill="#c5c4c4"></path></g><defs><mask id="SvgjsMask1079"><rect width="1440" height="560" fill="#ffffff"></rect></mask></defs></svg>